RobotoSerifMicro-HairlineWideItalic.ufo
<glyph name="asterisk" format="2">
  <advance width="542"/>
  <unicode hex="002A"/>
  <outline>
    <contour>
      <point x="116" y="666" type="curve"/>
      <point x="158" y="707" type="line"/>
      <point x="215" y="666"/>
      <point x="234" y="636"/>
      <point x="302" y="587" type="curve"/>
      <point x="283" y="566" type="line"/>
      <point x="215" y="616"/>
      <point x="170" y="623"/>
    </contour>
    <contour>
      <point x="97" y="456" type="curve"/>
      <point x="79" y="502" type="line"/>
      <point x="152" y="528"/>
      <point x="194" y="528"/>
      <point x="281" y="559" type="curve"/>
      <point x="290" y="537" type="line"/>
      <point x="201" y="506"/>
      <point x="169" y="479"/>
    </contour>
    <contour>
      <point x="291" y="343" type="curve"/>
      <point x="230" y="343" type="line"/>
      <point x="247" y="416"/>
      <point x="275" y="452"/>
      <point x="297" y="533" type="curve"/>
      <point x="324" y="529" type="line"/>
      <point x="303" y="449"/>
      <point x="309" y="410"/>
    </contour>
    <contour>
      <point x="343" y="776" type="curve"/>
      <point x="404" y="776" type="line"/>
      <point x="386" y="704"/>
      <point x="359" y="668"/>
      <point x="337" y="586" type="curve"/>
      <point x="310" y="590" type="line"/>
      <point x="331" y="670"/>
      <point x="325" y="709"/>
    </contour>
    <contour>
      <point x="472" y="408" type="line"/>
      <point x="416" y="450"/>
      <point x="395" y="482"/>
      <point x="331" y="532" type="curve"/>
      <point x="350" y="551" type="line"/>
      <point x="414" y="502"/>
      <point x="459" y="492"/>
      <point x="513" y="451" type="curve"/>
    </contour>
    <contour>
      <point x="553" y="624" type="line"/>
      <point x="478" y="596"/>
      <point x="437" y="590"/>
      <point x="352" y="559" type="curve"/>
      <point x="344" y="581" type="line"/>
      <point x="430" y="613"/>
      <point x="461" y="644"/>
      <point x="534" y="669" type="curve"/>
    </contour>
  </outline>
</glyph>
<glyph name="C" format="2">
  <advance width="780"/>
  <unicode hex="0043"/>
  <anchor x="413" y="741" name="top"/>
  <anchor x="413" y="0" name="bottom"/>
  <outline>
    <contour>
      <point x="451" y="694" type="curve" smooth="yes"/>
      <point x="603" y="694"/>
      <point x="672" y="613"/>
      <point x="685" y="478" type="curve"/>
      <point x="730" y="478" type="line"/>
      <point x="795" y="720" type="line"/>
      <point x="754" y="720" type="line"/>
      <point x="688" y="500" type="line"/>
      <point x="703" y="483" type="line"/>
      <point x="701" y="651"/>
      <point x="628" y="735"/>
      <point x="456" y="735" type="curve" smooth="yes"/>
      <point x="192" y="735"/>
      <point x="61" y="475"/>
      <point x="61" y="258" type="curve" smooth="yes"/>
      <point x="61" y="77"/>
      <point x="160" y="-25"/>
      <point x="366" y="-25" type="curve" smooth="yes"/>
      <point x="522" y="-25"/>
      <point x="634" y="71"/>
      <point x="706" y="197" type="curve"/>
      <point x="670" y="217" type="line"/>
      <point x="614" y="122"/>
      <point x="533" y="16"/>
      <point x="367" y="16" type="curve" smooth="yes"/>
      <point x="216" y="16"/>
      <point x="116" y="67"/>
      <point x="116" y="263" type="curve" smooth="yes"/>
      <point x="116" y="474"/>
      <point x="228" y="694"/>
    </contour>
  </outline>
</glyph>
<glyph name="D" format="2">
  <advance width="786"/>
  <unicode hex="0044"/>
  <anchor x="394" y="741" name="top"/>
  <anchor x="394" y="0" name="bottom"/>
  <outline>
    <contour>
      <point x="152" y="666" type="line"/>
      <point x="163" y="666" type="line" smooth="yes"/>
      <point x="215" y="666"/>
      <point x="251" y="659"/>
      <point x="244" y="630" type="curve" smooth="yes"/>
      <point x="99" y="80" type="line" smooth="yes"/>
      <point x="91" y="51"/>
      <point x="51" y="44"/>
      <point x="-1" y="44" type="curve" smooth="yes"/>
      <point x="-13" y="44" type="line"/>
      <point x="-25" y="0" type="line"/>
      <point x="367" y="0" type="line" smooth="yes"/>
      <point x="621" y="0"/>
      <point x="753" y="222"/>
      <point x="753" y="426" type="curve" smooth="yes"/>
      <point x="753" y="612"/>
      <point x="673" y="710"/>
      <point x="421" y="710" type="curve" smooth="yes"/>
      <point x="164" y="710" type="line"/>
    </contour>
    <contour>
      <point x="427" y="671" type="line" smooth="yes"/>
      <point x="641" y="671"/>
      <point x="698" y="593"/>
      <point x="698" y="425" type="curve" smooth="yes"/>
      <point x="698" y="241"/>
      <point x="596" y="39"/>
      <point x="364" y="39" type="curve" smooth="yes"/>
      <point x="138" y="39" type="line"/>
      <point x="304" y="671" type="line"/>
    </contour>
  </outline>
</glyph>
<glyph name="Q" format="2">
  <advance width="813"/>
  <unicode hex="0051"/>
  <outline>
    <contour>
      <point x="787" y="473" type="curve" smooth="yes"/>
      <point x="787" y="651"/>
      <point x="667" y="735"/>
      <point x="493" y="735" type="curve" smooth="yes"/>
      <point x="188" y="735"/>
      <point x="61" y="456"/>
      <point x="61" y="238" type="curve" smooth="yes"/>
      <point x="61" y="59"/>
      <point x="181" y="-25"/>
      <point x="354" y="-25" type="curve" smooth="yes"/>
      <point x="660" y="-25"/>
      <point x="787" y="254"/>
    </contour>
    <contour>
      <point x="359" y="16" type="curve" smooth="yes"/>
      <point x="207" y="16"/>
      <point x="116" y="84"/>
      <point x="116" y="244" type="curve" smooth="yes"/>
      <point x="116" y="331"/>
      <point x="133" y="425"/>
      <point x="170" y="506" type="curve" smooth="yes"/>
      <point x="225" y="600"/>
      <point x="327" y="694"/>
      <point x="489" y="694" type="curve" smooth="yes"/>
      <point x="641" y="694"/>
      <point x="732" y="626"/>
      <point x="732" y="466" type="curve" smooth="yes"/>
      <point x="732" y="379"/>
      <point x="715" y="285"/>
      <point x="678" y="204" type="curve" smooth="yes"/>
      <point x="624" y="110"/>
      <point x="521" y="16"/>
    </contour>
    <contour>
      <point x="492" y="-239" type="curve" smooth="yes"/>
      <point x="552" y="-239"/>
      <point x="605" y="-225"/>
      <point x="639" y="-212" type="curve"/>
      <point x="652" y="-169" type="line"/>
      <point x="610" y="-183"/>
      <point x="557" y="-198"/>
      <point x="496" y="-198" type="curve" smooth="yes"/>
      <point x="396" y="-198"/>
      <point x="342" y="-166"/>
      <point x="342" y="-105" type="curve" smooth="yes"/>
      <point x="342" y="-72"/>
      <point x="348" y="-39"/>
      <point x="359" y="-1" type="curve"/>
      <point x="315" y="-7" type="line"/>
      <point x="302" y="-49"/>
      <point x="296" y="-83"/>
      <point x="296" y="-103" type="curve" smooth="yes"/>
      <point x="296" y="-199"/>
      <point x="377" y="-239"/>
    </contour>
  </outline>
</glyph>
<glyph name="W" format="2">
  <advance width="1084"/>
  <unicode hex="0057"/>
  <anchor x="562" y="741" name="top"/>
  <outline>
    <contour>
      <point x="122" y="710" type="line"/>
      <point x="110" y="666" type="line"/>
      <point x="116" y="666" type="line" smooth="yes"/>
      <point x="160" y="666"/>
      <point x="192" y="652"/>
      <point x="191" y="593" type="curve" smooth="yes"/>
      <point x="189" y="-16" type="line"/>
      <point x="272" y="-16" type="line"/>
      <point x="657" y="670" type="line"/>
      <point x="634" y="659" type="line"/>
      <point x="660" y="-16" type="line"/>
      <point x="742" y="-16" type="line"/>
      <point x="1053" y="597" type="line" smooth="yes"/>
      <point x="1081" y="656"/>
      <point x="1119" y="666"/>
      <point x="1163" y="666" type="curve" smooth="yes"/>
      <point x="1170" y="666" type="line"/>
      <point x="1182" y="710" type="line"/>
      <point x="941" y="710" type="line"/>
      <point x="929" y="666" type="line"/>
      <point x="939" y="666" type="line" smooth="yes"/>
      <point x="1001" y="666"/>
      <point x="1034" y="656"/>
      <point x="1030" y="644" type="curve"/>
      <point x="700" y="-19" type="line"/>
      <point x="707" y="-17" type="line"/>
      <point x="680" y="710" type="line"/>
      <point x="633" y="710" type="line"/>
      <point x="228" y="-20" type="line"/>
      <point x="237" y="-17" type="line"/>
      <point x="238" y="655" type="line"/>
      <point x="240" y="662"/>
      <point x="276" y="666"/>
      <point x="338" y="666" type="curve" smooth="yes"/>
      <point x="348" y="666" type="line"/>
      <point x="360" y="710" type="line"/>
    </contour>
  </outline>
</glyph>
<glyph name="Z" format="2">
  <advance width="658"/>
  <unicode hex="005A"/>
  <anchor x="348" y="741" name="top"/>
  <anchor x="348" y="0" name="bottom"/>
  <outline>
    <contour>
      <point x="15" y="39" type="line"/>
      <point x="23" y="20" type="line"/>
      <point x="689" y="666" type="line"/>
      <point x="702" y="710" type="line"/>
      <point x="186" y="710" type="line"/>
      <point x="126" y="482" type="line"/>
      <point x="172" y="482" type="line"/>
      <point x="218" y="607" type="line" smooth="yes"/>
      <point x="236" y="656"/>
      <point x="277" y="671"/>
      <point x="368" y="671" type="curve" smooth="yes"/>
      <point x="656" y="671" type="line"/>
      <point x="646" y="682" type="line"/>
      <point x="-8" y="47" type="line"/>
      <point x="-22" y="0" type="line"/>
      <point x="538" y="0" type="line"/>
      <point x="595" y="214" type="line"/>
      <point x="547" y="214" type="line"/>
      <point x="496" y="84" type="line" smooth="yes"/>
      <point x="482" y="48"/>
      <point x="442" y="39"/>
      <point x="351" y="39" type="curve" smooth="yes"/>
    </contour>
  </outline>
</glyph>
<glyph name="paragraph" format="2">
  <advance width="668"/>
  <unicode hex="00B6"/>
  <outline>
    <contour>
      <point x="725" y="710" type="line"/>
      <point x="714" y="674" type="line"/>
      <point x="702" y="674" type="line" smooth="yes"/>
      <point x="650" y="674"/>
      <point x="610" y="667"/>
      <point x="602" y="638" type="curve" smooth="yes"/>
      <point x="435" y="0" type="line"/>
      <point x="389" y="0" type="line"/>
      <point x="578" y="710" type="line"/>
    </contour>
    <contour>
      <point x="608" y="710" type="line"/>
      <point x="597" y="674" type="line"/>
      <point x="388" y="674" type="line"/>
      <point x="399" y="710" type="line"/>
    </contour>
    <contour>
      <point x="244" y="0" type="line"/>
      <point x="198" y="0" type="line"/>
      <point x="285" y="327" type="line"/>
      <point x="282" y="327" type="line" smooth="yes"/>
      <point x="191" y="327"/>
      <point x="116" y="382"/>
      <point x="116" y="488" type="curve" smooth="yes"/>
      <point x="116" y="626"/>
      <point x="215" y="710"/>
      <point x="377" y="710" type="curve" smooth="yes"/>
      <point x="432" y="710" type="line"/>
    </contour>
  </outline>
</glyph>
<glyph name="cedilla" format="2">
  <advance width="530"/>
  <unicode hex="00B8"/>
  <anchor x="263" y="34" name="_bottom"/>
  <outline>
    <contour>
      <point x="274" y="-288" type="curve" smooth="yes"/>
      <point x="365" y="-288"/>
      <point x="412" y="-239"/>
      <point x="412" y="-182" type="curve" smooth="yes"/>
      <point x="412" y="-126"/>
      <point x="368" y="-87"/>
      <point x="259" y="-87" type="curve"/>
      <point x="265" y="-94" type="line"/>
      <point x="354" y="5" type="line"/>
      <point x="286" y="5" type="line"/>
      <point x="217" y="-121" type="line"/>
      <point x="256" y="-121" type="line" smooth="yes"/>
      <point x="332" y="-121"/>
      <point x="359" y="-140"/>
      <point x="359" y="-180" type="curve" smooth="yes"/>
      <point x="359" y="-225"/>
      <point x="333" y="-251"/>
      <point x="274" y="-251" type="curve" smooth="yes"/>
      <point x="198" y="-251"/>
      <point x="176" y="-209"/>
      <point x="164" y="-190" type="curve"/>
      <point x="123" y="-211" type="line"/>
      <point x="143" y="-246"/>
      <point x="182" y="-288"/>
    </contour>
  </outline>
</glyph>
<glyph name="ordmasculine" format="2">
  <advance width="559"/>
  <unicode hex="00BA"/>
  <outline>
    <contour>
      <point x="291" y="308" type="curve" smooth="yes"/>
      <point x="470" y="308"/>
      <point x="526" y="470"/>
      <point x="526" y="568" type="curve" smooth="yes"/>
      <point x="526" y="666"/>
      <point x="462" y="730"/>
      <point x="352" y="730" type="curve" smooth="yes"/>
      <point x="173" y="730"/>
      <point x="117" y="568"/>
      <point x="117" y="470" type="curve" smooth="yes"/>
      <point x="117" y="372"/>
      <point x="181" y="308"/>
    </contour>
    <contour>
      <point x="348" y="694" type="curve" smooth="yes"/>
      <point x="433" y="694"/>
      <point x="470" y="656"/>
      <point x="470" y="565" type="curve" smooth="yes"/>
      <point x="470" y="521"/>
      <point x="460" y="463"/>
      <point x="434" y="418" type="curve" smooth="yes"/>
      <point x="407" y="377"/>
      <point x="365" y="344"/>
      <point x="294" y="344" type="curve" smooth="yes"/>
      <point x="210" y="344"/>
      <point x="173" y="382"/>
      <point x="173" y="473" type="curve" smooth="yes"/>
      <point x="173" y="517"/>
      <point x="183" y="575"/>
      <point x="209" y="620" type="curve" smooth="yes"/>
      <point x="236" y="661"/>
      <point x="278" y="694"/>
    </contour>
  </outline>
</glyph>
<glyph name="AE" format="2">
  <advance width="1123"/>
  <unicode hex="00C6"/>
  <anchor x="684" y="741" name="top"/>
  <outline>
    <contour>
      <point x="256" y="289" type="line"/>
      <point x="229" y="251" type="line"/>
      <point x="596" y="251" type="line"/>
      <point x="588" y="289" type="line"/>
    </contour>
    <contour>
      <point x="635" y="384" type="curve"/>
      <point x="625" y="348" type="line"/>
      <point x="735" y="345"/>
      <point x="846" y="343"/>
      <point x="956" y="341" type="curve"/>
      <point x="973" y="392" type="line"/>
      <point x="860" y="390"/>
      <point x="747" y="386"/>
    </contour>
    <contour>
      <point x="-58" y="0" type="line"/>
      <point x="182" y="0" type="line"/>
      <point x="194" y="44" type="line"/>
      <point x="184" y="44" type="line" smooth="yes"/>
      <point x="124" y="44"/>
      <point x="92" y="54"/>
      <point x="95" y="67" type="curve"/>
      <point x="640" y="669" type="line"/>
      <point x="679" y="669" type="line"/>
      <point x="524" y="80" type="line"/>
      <point x="516" y="51"/>
      <point x="476" y="44"/>
      <point x="424" y="44" type="curve" smooth="yes"/>
      <point x="412" y="44" type="line"/>
      <point x="400" y="0" type="line"/>
      <point x="993" y="0" type="line"/>
      <point x="1048" y="215" type="line"/>
      <point x="1001" y="215" type="line"/>
      <point x="951" y="84" type="line" smooth="yes"/>
      <point x="937" y="48"/>
      <point x="896" y="39"/>
      <point x="805" y="39" type="curve" smooth="yes"/>
      <point x="562" y="39" type="line"/>
      <point x="729" y="671" type="line"/>
      <point x="935" y="671" type="line" smooth="yes"/>
      <point x="1026" y="671"/>
      <point x="1058" y="662"/>
      <point x="1054" y="626" type="curve" smooth="yes"/>
      <point x="1042" y="520" type="line"/>
      <point x="1087" y="520" type="line"/>
      <point x="1133" y="710" type="line"/>
      <point x="470" y="710" type="line"/>
      <point x="458" y="666" type="line"/>
      <point x="470" y="666" type="line" smooth="yes"/>
      <point x="522" y="666"/>
      <point x="558" y="659"/>
      <point x="550" y="630" type="curve"/>
      <point x="73" y="108" type="line" smooth="yes"/>
      <point x="30" y="61"/>
      <point x="4" y="44"/>
      <point x="-39" y="44" type="curve" smooth="yes"/>
      <point x="-46" y="44" type="line"/>
    </contour>
  </outline>
</glyph>
<glyph name="idieresis" format="2">
  <advance width="350"/>
  <unicode hex="00EF"/>
  <outline>
    <contour>
      <point x="107" y="699" type="curve" smooth="yes"/>
      <point x="139" y="699"/>
      <point x="165" y="712"/>
      <point x="165" y="751" type="curve" smooth="yes"/>
      <point x="165" y="790"/>
      <point x="139" y="804"/>
      <point x="107" y="804" type="curve" smooth="yes"/>
      <point x="73" y="804"/>
      <point x="49" y="790"/>
      <point x="49" y="751" type="curve" smooth="yes"/>
      <point x="49" y="712"/>
      <point x="73" y="699"/>
    </contour>
    <contour>
      <point x="341" y="699" type="curve" smooth="yes"/>
      <point x="373" y="699"/>
      <point x="399" y="712"/>
      <point x="399" y="751" type="curve" smooth="yes"/>
      <point x="399" y="790"/>
      <point x="373" y="804"/>
      <point x="341" y="804" type="curve" smooth="yes"/>
      <point x="307" y="804"/>
      <point x="283" y="790"/>
      <point x="283" y="751" type="curve" smooth="yes"/>
      <point x="283" y="712"/>
      <point x="307" y="699"/>
    </contour>
    <component base="dotlessi"/>
  </outline>
</glyph>
<glyph name="Aogonek" format="2">
  <advance width="737"/>
  <unicode hex="0104"/>
  <outline>
    <contour>
      <point x="471" y="-252" type="curve" smooth="yes"/>
      <point x="399" y="-252"/>
      <point x="357" y="-215"/>
      <point x="357" y="-167" type="curve" smooth="yes"/>
      <point x="357" y="-101"/>
      <point x="386" y="-65"/>
      <point x="597" y="39" type="curve"/>
      <point x="610" y="13" type="line"/>
      <point x="462" y="-62"/>
      <point x="415" y="-96"/>
      <point x="415" y="-164" type="curve" smooth="yes"/>
      <point x="415" y="-197"/>
      <point x="431" y="-217"/>
      <point x="475" y="-217" type="curve" smooth="yes"/>
      <point x="526" y="-217"/>
      <point x="560" y="-184"/>
      <point x="585" y="-163" type="curve"/>
      <point x="608" y="-189" type="line"/>
      <point x="566" y="-227"/>
      <point x="527" y="-252"/>
    </contour>
    <contour>
      <point x="186" y="251" type="line"/>
      <point x="211" y="289" type="line"/>
      <point x="534" y="289" type="line"/>
      <point x="543" y="251" type="line"/>
    </contour>
    <contour>
      <point x="498" y="728" type="line"/>
      <point x="98" y="67" type="line"/>
      <point x="94" y="54"/>
      <point x="128" y="44"/>
      <point x="187" y="44" type="curve" smooth="yes"/>
      <point x="198" y="44" type="line"/>
      <point x="185" y="0" type="line"/>
      <point x="-54" y="0" type="line"/>
      <point x="-41" y="44" type="line"/>
      <point x="-35" y="44" type="line" smooth="yes"/>
      <point x="8" y="44"/>
      <point x="40" y="55"/>
      <point x="73" y="108" type="curve" smooth="yes"/>
      <point x="450" y="722" type="line"/>
      <point x="532" y="722" type="line"/>
      <point x="587" y="108" type="line" smooth="yes"/>
      <point x="591" y="55"/>
      <point x="618" y="44"/>
      <point x="661" y="44" type="curve" smooth="yes"/>
      <point x="667" y="44" type="line"/>
      <point x="655" y="0" type="line"/>
      <point x="547" y="0" type="line"/>
      <point x="483" y="722" type="line"/>
    </contour>
  </outline>
</glyph>
<glyph name="imacron" format="2">
  <advance width="350"/>
  <unicode hex="012B"/>
  <outline>
    <contour>
      <point x="83" y="765" type="line"/>
      <point x="69" y="715" type="line"/>
      <point x="380" y="715" type="line"/>
      <point x="394" y="765" type="line"/>
    </contour>
    <component base="dotlessi"/>
  </outline>
</glyph>
<glyph name="Ldot" format="2">
  <advance width="711"/>
  <unicode hex="013F"/>
  <outline>
    <contour>
      <point x="433" y="710" type="line"/>
      <point x="164" y="710" type="line"/>
      <point x="152" y="666" type="line"/>
      <point x="163" y="666" type="line" smooth="yes"/>
      <point x="215" y="666"/>
      <point x="251" y="659"/>
      <point x="244" y="630" type="curve" smooth="yes"/>
      <point x="99" y="80" type="line" smooth="yes"/>
      <point x="91" y="51"/>
      <point x="51" y="44"/>
      <point x="-1" y="44" type="curve" smooth="yes"/>
      <point x="-13" y="44" type="line"/>
      <point x="-25" y="0" type="line"/>
      <point x="566" y="0" type="line"/>
      <point x="622" y="221" type="line"/>
      <point x="574" y="221" type="line"/>
      <point x="523" y="84" type="line" smooth="yes"/>
      <point x="509" y="48"/>
      <point x="468" y="39"/>
      <point x="377" y="39" type="curve" smooth="yes"/>
      <point x="138" y="39" type="line"/>
      <point x="293" y="630" type="line" smooth="yes"/>
      <point x="301" y="659"/>
      <point x="337" y="666"/>
      <point x="398" y="666" type="curve" smooth="yes"/>
      <point x="421" y="666" type="line"/>
    </contour>
    <component base="periodcentered" xOffset="402" yOffset="120"/>
  </outline>
</glyph>
<glyph name="lslash" format="2">
  <advance width="438"/>
  <unicode hex="0142"/>
  <outline>
    <contour>
      <point x="27" y="251" type="line"/>
      <point x="457" y="530" type="line"/>
      <point x="471" y="579" type="line"/>
      <point x="42" y="301" type="line"/>
    </contour>
    <component base="l" xOffset="37"/>
  </outline>
</glyph>
<glyph name="oe" format="2">
  <advance width="1046"/>
  <unicode hex="0153"/>
  <outline>
    <contour>
      <point x="579" y="207" type="curve" smooth="yes"/>
      <point x="579" y="378"/>
      <point x="674" y="534"/>
      <point x="841" y="534" type="curve" smooth="yes"/>
      <point x="915" y="534"/>
      <point x="955" y="508"/>
      <point x="955" y="439" type="curve" smooth="yes"/>
      <point x="955" y="333"/>
      <point x="851" y="268"/>
      <point x="565" y="255" type="curve"/>
      <point x="563" y="225" type="line"/>
      <point x="858" y="234"/>
      <point x="1009" y="315"/>
      <point x="1009" y="441" type="curve" smooth="yes"/>
      <point x="1009" y="522"/>
      <point x="954" y="575"/>
      <point x="840" y="575" type="curve" smooth="yes"/>
      <point x="659" y="575"/>
      <point x="538" y="413"/>
      <point x="538" y="210" type="curve" smooth="yes"/>
      <point x="538" y="63"/>
      <point x="612" y="-12"/>
      <point x="749" y="-12" type="curve" smooth="yes"/>
      <point x="860" y="-12"/>
      <point x="939" y="46"/>
      <point x="982" y="106" type="curve"/>
      <point x="948" y="130" type="line"/>
      <point x="906" y="78"/>
      <point x="858" y="29"/>
      <point x="748" y="29" type="curve" smooth="yes"/>
      <point x="652" y="29"/>
      <point x="579" y="78"/>
    </contour>
    <contour>
      <point x="360" y="575" type="curve" smooth="yes"/>
      <point x="125" y="575"/>
      <point x="46" y="347"/>
      <point x="46" y="209" type="curve" smooth="yes"/>
      <point x="46" y="73"/>
      <point x="130" y="-13"/>
      <point x="280" y="-13" type="curve" smooth="yes"/>
      <point x="516" y="-13"/>
      <point x="579" y="224"/>
      <point x="579" y="365" type="curve" smooth="yes"/>
      <point x="579" y="503"/>
      <point x="510" y="575"/>
    </contour>
    <contour>
      <point x="487" y="134" type="curve" smooth="yes"/>
      <point x="448" y="73"/>
      <point x="385" y="28"/>
      <point x="284" y="28" type="curve" smooth="yes"/>
      <point x="159" y="28"/>
      <point x="102" y="83"/>
      <point x="102" y="212" type="curve" smooth="yes"/>
      <point x="102" y="277"/>
      <point x="116" y="361"/>
      <point x="154" y="428" type="curve" smooth="yes"/>
      <point x="192" y="489"/>
      <point x="256" y="534"/>
      <point x="357" y="534" type="curve" smooth="yes"/>
      <point x="481" y="534"/>
      <point x="539" y="479"/>
      <point x="539" y="350" type="curve" smooth="yes"/>
      <point x="539" y="285"/>
      <point x="525" y="201"/>
    </contour>
  </outline>
</glyph>
<glyph name="Delta" format="2">
  <advance width="751"/>
  <unicode hex="0394"/>
  <outline>
    <contour>
      <point x="-41" y="0" type="line"/>
      <point x="632" y="0" type="line"/>
      <point x="645" y="40" type="line"/>
      <point x="521" y="710" type="line"/>
      <point x="448" y="710" type="line"/>
      <point x="-28" y="40" type="line"/>
    </contour>
    <contour>
      <point x="595" y="12" type="line"/>
      <point x="616" y="37" type="line"/>
      <point x="-20" y="37" type="line"/>
      <point x="-7" y="-2" type="line"/>
      <point x="481" y="687" type="line"/>
      <point x="468" y="701" type="line"/>
    </contour>
  </outline>
</glyph>
<glyph name="quoteright" format="2">
  <advance width="325"/>
  <unicode hex="2019"/>
  <outline>
    <contour>
      <point x="151" y="467" type="line"/>
      <point x="306" y="487"/>
      <point x="339" y="681"/>
      <point x="339" y="707" type="curve" smooth="yes"/>
      <point x="339" y="756"/>
      <point x="318" y="780"/>
      <point x="266" y="780" type="curve" smooth="yes"/>
      <point x="214" y="780"/>
      <point x="194" y="755"/>
      <point x="194" y="724" type="curve" smooth="yes"/>
      <point x="194" y="692"/>
      <point x="217" y="679"/>
      <point x="259" y="679" type="curve" smooth="yes"/>
      <point x="280" y="679"/>
      <point x="297" y="682"/>
      <point x="308" y="689" type="curve"/>
      <point x="294" y="699" type="line"/>
      <point x="265" y="562"/>
      <point x="220" y="523"/>
      <point x="120" y="507" type="curve"/>
    </contour>
  </outline>
</glyph>
<glyph name="guilsinglleft" format="2">
  <advance width="413"/>
  <unicode hex="2039"/>
  <outline>
    <contour>
      <point x="135" y="286" type="line"/>
      <point x="403" y="505" type="line"/>
      <point x="352" y="505" type="line"/>
      <point x="92" y="315" type="line"/>
      <point x="79" y="268" type="line"/>
      <point x="235" y="65" type="line"/>
      <point x="286" y="65" type="line"/>
      <point x="139" y="287" type="line"/>
    </contour>
  </outline>
</glyph>
<glyph name="fraction" format="2">
  <advance width="147"/>
  <unicode hex="2044"/>
  <outline>
    <contour>
      <point x="432" y="710" type="line"/>
      <point x="-340" y="0" type="line"/>
      <point x="-284" y="0" type="line"/>
      <point x="488" y="710" type="line"/>
    </contour>
  </outline>
</glyph>
<glyph name="lira" format="2">
  <advance width="594"/>
  <unicode hex="20A4"/>
  <outline>
    <contour>
      <point x="-40" y="-9" type="line"/>
      <point x="134" y="48"/>
      <point x="239" y="140"/>
      <point x="239" y="289" type="curve" smooth="yes"/>
      <point x="239" y="367"/>
      <point x="206" y="454"/>
      <point x="206" y="531" type="curve" smooth="yes"/>
      <point x="206" y="642"/>
      <point x="273" y="701"/>
      <point x="389" y="701" type="curve" smooth="yes"/>
      <point x="459" y="701"/>
      <point x="510" y="689"/>
      <point x="562" y="651" type="curve"/>
      <point x="552" y="664"/>
      <point x="556" y="691"/>
      <point x="534" y="706" type="curve"/>
      <point x="503" y="592" type="line"/>
      <point x="552" y="592" type="line"/>
      <point x="579" y="689" type="line"/>
      <point x="565" y="700"/>
      <point x="501" y="735"/>
      <point x="391" y="735" type="curve" smooth="yes"/>
      <point x="246" y="735"/>
      <point x="154" y="661"/>
      <point x="154" y="523" type="curve" smooth="yes"/>
      <point x="154" y="439"/>
      <point x="193" y="364"/>
      <point x="193" y="272" type="curve" smooth="yes"/>
      <point x="193" y="161"/>
      <point x="107" y="79"/>
      <point x="-28" y="30" type="curve"/>
    </contour>
    <contour>
      <point x="351" y="-10" type="curve" smooth="yes"/>
      <point x="442" y="-10"/>
      <point x="488" y="39"/>
      <point x="533" y="169" type="curve"/>
      <point x="492" y="183" type="line"/>
      <point x="454" y="81"/>
      <point x="422" y="40"/>
      <point x="356" y="40" type="curve" smooth="yes"/>
      <point x="282" y="40"/>
      <point x="247" y="85"/>
      <point x="183" y="163" type="curve"/>
      <point x="160" y="124" type="line"/>
      <point x="231" y="40"/>
      <point x="258" y="-10"/>
    </contour>
    <contour>
      <point x="34" y="296" type="line"/>
      <point x="25" y="261" type="line"/>
      <point x="432" y="261" type="line"/>
      <point x="441" y="296" type="line"/>
    </contour>
    <contour>
      <point x="60" y="465" type="line"/>
      <point x="51" y="429" type="line"/>
      <point x="457" y="429" type="line"/>
      <point x="467" y="465" type="line"/>
    </contour>
  </outline>
</glyph>
<glyph name="won" format="2">
  <advance width="594"/>
  <unicode hex="20A9"/>
  <outline>
    <contour>
      <point x="55" y="0" type="line"/>
      <point x="108" y="0" type="line"/>
      <point x="399" y="703" type="line"/>
      <point x="396" y="707" type="line"/>
      <point x="317" y="0" type="line"/>
      <point x="370" y="0" type="line"/>
      <point x="586" y="632" type="line" smooth="yes"/>
      <point x="597" y="666"/>
      <point x="621" y="675"/>
      <point x="644" y="675" type="curve" smooth="yes"/>
      <point x="653" y="675" type="line"/>
      <point x="663" y="710" type="line"/>
      <point x="538" y="710" type="line"/>
      <point x="528" y="675" type="line"/>
      <point x="532" y="675" type="line" smooth="yes"/>
      <point x="558" y="675"/>
      <point x="563" y="668"/>
      <point x="560" y="657" type="curve"/>
      <point x="340" y="8" type="line"/>
      <point x="354" y="11" type="line"/>
      <point x="432" y="710" type="line"/>
      <point x="367" y="710" type="line"/>
      <point x="79" y="12" type="line"/>
      <point x="94" y="15" type="line"/>
      <point x="205" y="665" type="line"/>
      <point x="207" y="672"/>
      <point x="218" y="675"/>
      <point x="241" y="675" type="curve" smooth="yes"/>
      <point x="245" y="675" type="line"/>
      <point x="255" y="710" type="line"/>
      <point x="125" y="710" type="line"/>
      <point x="115" y="675" type="line"/>
      <point x="123" y="675" type="line" smooth="yes"/>
      <point x="148" y="675"/>
      <point x="166" y="672"/>
      <point x="159" y="638" type="curve" smooth="yes"/>
    </contour>
    <contour>
      <point x="44" y="496" type="line"/>
      <point x="35" y="466" type="line"/>
      <point x="169" y="466" type="line"/>
      <point x="166" y="473" type="line"/>
      <point x="289" y="478" type="line"/>
      <point x="291" y="496" type="line"/>
    </contour>
    <contour>
      <point x="393" y="478" type="line"/>
      <point x="505" y="473" type="line"/>
      <point x="500" y="466" type="line"/>
      <point x="620" y="466" type="line"/>
      <point x="630" y="496" type="line"/>
      <point x="401" y="496" type="line"/>
    </contour>
    <contour>
      <point x="198" y="249" type="line"/>
      <point x="367" y="249" type="line"/>
      <point x="365" y="266" type="line"/>
      <point x="291" y="287" type="line"/>
      <point x="214" y="266" type="line"/>
    </contour>
    <contour>
      <point x="112" y="281" type="line"/>
      <point x="-12" y="281" type="line"/>
      <point x="-22" y="250" type="line"/>
      <point x="114" y="250" type="line"/>
    </contour>
    <contour>
      <point x="449" y="250" type="line"/>
      <point x="564" y="250" type="line"/>
      <point x="574" y="281" type="line"/>
      <point x="463" y="281" type="line"/>
    </contour>
  </outline>
</glyph>
<glyph name="uni20B4" format="2">
  <advance width="594"/>
  <unicode hex="20B4"/>
  <outline>
    <contour>
      <point x="-4" y="249" type="line"/>
      <point x="536" y="249" type="line"/>
      <point x="547" y="283" type="line"/>
      <point x="6" y="283" type="line"/>
    </contour>
    <contour>
      <point x="49" y="451" type="line"/>
      <point x="589" y="451" type="line"/>
      <point x="599" y="485" type="line"/>
      <point x="59" y="485" type="line"/>
    </contour>
    <contour>
      <point x="245" y="-10" type="curve" smooth="yes"/>
      <point x="333" y="-10"/>
      <point x="395" y="17"/>
      <point x="431" y="33" type="curve"/>
      <point x="465" y="161" type="line"/>
      <point x="411" y="161" type="line"/>
      <point x="379" y="37" type="line"/>
      <point x="392" y="39"/>
      <point x="431" y="65"/>
      <point x="410" y="65" type="curve"/>
      <point x="368" y="42"/>
      <point x="323" y="24"/>
      <point x="247" y="24" type="curve" smooth="yes"/>
      <point x="156" y="24"/>
      <point x="102" y="58"/>
      <point x="102" y="134" type="curve" smooth="yes"/>
      <point x="102" y="200"/>
      <point x="149" y="260"/>
      <point x="218" y="286" type="curve"/>
      <point x="142" y="287" type="line"/>
      <point x="78" y="258"/>
      <point x="45" y="195"/>
      <point x="45" y="134" type="curve" smooth="yes"/>
      <point x="45" y="27"/>
      <point x="129" y="-10"/>
    </contour>
    <contour>
      <point x="438" y="455" type="line"/>
      <point x="523" y="493"/>
      <point x="551" y="540"/>
      <point x="551" y="608" type="curve" smooth="yes"/>
      <point x="551" y="686"/>
      <point x="489" y="730"/>
      <point x="369" y="730" type="curve" smooth="yes"/>
      <point x="294" y="730"/>
      <point x="226" y="697"/>
      <point x="196" y="678" type="curve"/>
      <point x="168" y="577" type="line"/>
      <point x="222" y="577" type="line"/>
      <point x="254" y="701" type="line"/>
      <point x="239" y="696"/>
      <point x="212" y="671"/>
      <point x="219" y="653" type="curve"/>
      <point x="261" y="677"/>
      <point x="310" y="696"/>
      <point x="368" y="696" type="curve" smooth="yes"/>
      <point x="452" y="696"/>
      <point x="495" y="664"/>
      <point x="495" y="609" type="curve" smooth="yes"/>
      <point x="495" y="555"/>
      <point x="464" y="496"/>
      <point x="376" y="470" type="curve"/>
    </contour>
  </outline>
</glyph>
<glyph name="cedi" format="2">
  <advance width="594"/>
  <unicode hex="20B5"/>
  <outline>
    <contour>
      <point x="400" y="665" type="curve" smooth="yes"/>
      <point x="494" y="665"/>
      <point x="541" y="637"/>
      <point x="568" y="623" type="curve"/>
      <point x="565" y="631"/>
      <point x="576" y="632"/>
      <point x="558" y="643" type="curve"/>
      <point x="520" y="502" type="line"/>
      <point x="567" y="502" type="line"/>
      <point x="606" y="644" type="line"/>
      <point x="584" y="658"/>
      <point x="509" y="700"/>
      <point x="400" y="700" type="curve" smooth="yes"/>
      <point x="140" y="700"/>
      <point x="42" y="468"/>
      <point x="42" y="268" type="curve" smooth="yes"/>
      <point x="42" y="106"/>
      <point x="127" y="10"/>
      <point x="282" y="10" type="curve" smooth="yes"/>
      <point x="393" y="10"/>
      <point x="471" y="71"/>
      <point x="531" y="206" type="curve"/>
      <point x="493" y="219" type="line"/>
      <point x="437" y="97"/>
      <point x="380" y="43"/>
      <point x="286" y="43" type="curve" smooth="yes"/>
      <point x="153" y="43"/>
      <point x="90" y="136"/>
      <point x="90" y="272" type="curve" smooth="yes"/>
      <point x="90" y="311"/>
      <point x="94" y="348"/>
      <point x="105" y="390" type="curve" smooth="yes"/>
      <point x="145" y="565"/>
      <point x="243" y="665"/>
    </contour>
    <contour>
      <point x="415" y="790" type="line"/>
      <point x="386" y="678" type="line"/>
      <point x="385" y="669" type="line"/>
      <point x="222" y="51" type="line"/>
      <point x="216" y="37" type="line"/>
      <point x="175" y="-120" type="line"/>
      <point x="216" y="-120" type="line"/>
      <point x="257" y="39" type="line"/>
      <point x="257" y="47" type="line"/>
      <point x="422" y="673" type="line"/>
      <point x="426" y="680" type="line"/>
      <point x="455" y="790" type="line"/>
    </contour>
  </outline>
</glyph>
<glyph name="trademark" format="2">
  <advance width="1100"/>
  <unicode hex="2122"/>
  <outline>
    <contour>
      <point x="141" y="302" type="line"/>
      <point x="312" y="302" type="line"/>
      <point x="321" y="333" type="line"/>
      <point x="306" y="333" type="line" smooth="yes"/>
      <point x="277" y="333"/>
      <point x="257" y="337"/>
      <point x="261" y="352" type="curve" smooth="yes"/>
      <point x="346" y="682" type="line"/>
      <point x="410" y="682" type="line" smooth="yes"/>
      <point x="465" y="682"/>
      <point x="481" y="673"/>
      <point x="478" y="654" type="curve" smooth="yes"/>
      <point x="466" y="580" type="line"/>
      <point x="495" y="580" type="line"/>
      <point x="530" y="710" type="line"/>
      <point x="137" y="710" type="line"/>
      <point x="102" y="580" type="line"/>
      <point x="131" y="580" type="line"/>
      <point x="158" y="654" type="line" smooth="yes"/>
      <point x="165" y="673"/>
      <point x="187" y="682"/>
      <point x="241" y="682" type="curve" smooth="yes"/>
      <point x="304" y="682" type="line"/>
      <point x="219" y="352" type="line" smooth="yes"/>
      <point x="215" y="337"/>
      <point x="190" y="333"/>
      <point x="163" y="333" type="curve" smooth="yes"/>
      <point x="149" y="333" type="line"/>
    </contour>
    <contour>
      <point x="506" y="302" type="line"/>
      <point x="637" y="302" type="line"/>
      <point x="645" y="333" type="line"/>
      <point x="642" y="333" type="line" smooth="yes"/>
      <point x="630" y="333"/>
      <point x="605" y="335"/>
      <point x="606" y="338" type="curve" smooth="yes"/>
      <point x="702" y="705" type="line"/>
      <point x="697" y="706" type="line"/>
      <point x="743" y="301" type="line"/>
      <point x="767" y="301" type="line"/>
      <point x="1027" y="707" type="line"/>
      <point x="1016" y="701" type="line"/>
      <point x="921" y="338" type="line" smooth="yes"/>
      <point x="920" y="335"/>
      <point x="898" y="333"/>
      <point x="882" y="333" type="curve" smooth="yes"/>
      <point x="878" y="333" type="line"/>
      <point x="870" y="302" type="line"/>
      <point x="1011" y="302" type="line"/>
      <point x="1019" y="333" type="line"/>
      <point x="1008" y="333" type="line" smooth="yes"/>
      <point x="982" y="333"/>
      <point x="962" y="337"/>
      <point x="967" y="352" type="curve" smooth="yes"/>
      <point x="1046" y="660" type="line" smooth="yes"/>
      <point x="1050" y="676"/>
      <point x="1071" y="680"/>
      <point x="1098" y="680" type="curve" smooth="yes"/>
      <point x="1109" y="680" type="line"/>
      <point x="1117" y="710" type="line"/>
      <point x="988" y="710" type="line"/>
      <point x="762" y="349" type="line"/>
      <point x="774" y="354" type="line"/>
      <point x="736" y="710" type="line"/>
      <point x="612" y="710" type="line"/>
      <point x="604" y="680" type="line"/>
      <point x="613" y="680" type="line" smooth="yes"/>
      <point x="640" y="680"/>
      <point x="659" y="676"/>
      <point x="655" y="660" type="curve" smooth="yes"/>
      <point x="575" y="352" type="line" smooth="yes"/>
      <point x="571" y="337"/>
      <point x="550" y="333"/>
      <point x="523" y="333" type="curve" smooth="yes"/>
      <point x="514" y="333" type="line"/>
    </contour>
  </outline>
</glyph>
<glyph name="approxequal" format="2">
  <advance width="594"/>
  <unicode hex="2248"/>
  <outline>
    <contour>
      <point x="367" y="133" type="curve" smooth="yes"/>
      <point x="291" y="133"/>
      <point x="284" y="257"/>
      <point x="173" y="257" type="curve" smooth="yes"/>
      <point x="93" y="257"/>
      <point x="44" y="215"/>
      <point x="2" y="100" type="curve"/>
      <point x="50" y="88" type="line"/>
      <point x="76" y="159"/>
      <point x="106" y="214"/>
      <point x="164" y="214" type="curve" smooth="yes"/>
      <point x="243" y="214"/>
      <point x="251" y="89"/>
      <point x="360" y="89" type="curve" smooth="yes"/>
      <point x="433" y="89"/>
      <point x="482" y="131"/>
      <point x="520" y="247" type="curve"/>
      <point x="473" y="259" type="line"/>
      <point x="454" y="200"/>
      <point x="426" y="133"/>
    </contour>
    <contour>
      <point x="435" y="395" type="curve" smooth="yes"/>
      <point x="359" y="395"/>
      <point x="351" y="519"/>
      <point x="241" y="519" type="curve" smooth="yes"/>
      <point x="160" y="519"/>
      <point x="111" y="477"/>
      <point x="70" y="362" type="curve"/>
      <point x="117" y="350" type="line"/>
      <point x="143" y="421"/>
      <point x="173" y="476"/>
      <point x="232" y="476" type="curve" smooth="yes"/>
      <point x="311" y="476"/>
      <point x="318" y="351"/>
      <point x="428" y="351" type="curve" smooth="yes"/>
      <point x="500" y="351"/>
      <point x="549" y="393"/>
      <point x="587" y="509" type="curve"/>
      <point x="540" y="521" type="line"/>
      <point x="522" y="462"/>
      <point x="493" y="395"/>
    </contour>
  </outline>
</glyph>
<glyph name="three.den" format="2">
  <advance width="512"/>
  <unicode hex="E405"/>
  <outline>
    <contour>
      <point x="271" y="395" type="curve" smooth="yes"/>
      <point x="213" y="395"/>
      <point x="180" y="380"/>
      <point x="161" y="368" type="curve"/>
      <point x="173" y="388"/>
      <point x="167" y="390"/>
      <point x="201" y="403" type="curve"/>
      <point x="178" y="305" type="line"/>
      <point x="125" y="305" type="line"/>
      <point x="148" y="391" type="line"/>
      <point x="170" y="402"/>
      <point x="217" y="420"/>
      <point x="271" y="420" type="curve" smooth="yes"/>
      <point x="360" y="420"/>
      <point x="408" y="386"/>
      <point x="408" y="326" type="curve" smooth="yes"/>
      <point x="408" y="259"/>
      <point x="349" y="217"/>
      <point x="262" y="217" type="curve"/>
      <point x="257" y="219" type="line"/>
      <point x="348" y="212"/>
      <point x="393" y="171"/>
      <point x="393" y="119" type="curve" smooth="yes"/>
      <point x="393" y="46"/>
      <point x="331" y="-6"/>
      <point x="234" y="-6" type="curve" smooth="yes"/>
      <point x="124" y="-6"/>
      <point x="74" y="53"/>
      <point x="54" y="112" type="curve"/>
      <point x="91" y="122" type="line"/>
      <point x="104" y="90"/>
      <point x="135" y="23"/>
      <point x="236" y="23" type="curve" smooth="yes"/>
      <point x="307" y="23"/>
      <point x="336" y="58"/>
      <point x="336" y="118" type="curve" smooth="yes"/>
      <point x="336" y="175"/>
      <point x="303" y="202"/>
      <point x="231" y="202" type="curve" smooth="yes"/>
      <point x="160" y="202" type="line"/>
      <point x="168" y="231" type="line"/>
      <point x="238" y="231" type="line" smooth="yes"/>
      <point x="324" y="231"/>
      <point x="357" y="266"/>
      <point x="357" y="322" type="curve" smooth="yes"/>
      <point x="357" y="374"/>
      <point x="323" y="395"/>
    </contour>
  </outline>
</glyph>
<glyph name="four.den" format="2">
  <advance width="513"/>
  <unicode hex="E406"/>
  <outline>
    <contour>
      <point x="37" y="113" type="line"/>
      <point x="419" y="113" type="line"/>
      <point x="427" y="144" type="line"/>
      <point x="72" y="144" type="line"/>
      <point x="59" y="111" type="line"/>
      <point x="378" y="409" type="line"/>
      <point x="369" y="415" type="line"/>
      <point x="342" y="415" type="line"/>
      <point x="46" y="142" type="line"/>
    </contour>
    <contour>
      <point x="297" y="0" type="line"/>
      <point x="407" y="415" type="line"/>
      <point x="363" y="415" type="line"/>
      <point x="358" y="395" type="line"/>
      <point x="254" y="0" type="line"/>
    </contour>
  </outline>
</glyph>
<glyph name="acute.uc" format="2">
  <advance width="530"/>
  <anchor x="222" y="727" name="_top"/>
  <outline>
    <contour>
      <point x="271" y="900" type="curve" smooth="yes"/>
      <point x="175" y="814" type="line"/>
      <point x="168" y="793" type="line"/>
      <point x="192" y="793" type="line"/>
      <point x="325" y="863" type="line" smooth="yes"/>
      <point x="364" y="883"/>
      <point x="387" y="897"/>
      <point x="387" y="921" type="curve" smooth="yes"/>
      <point x="387" y="938"/>
      <point x="374" y="954"/>
      <point x="349" y="954" type="curve" smooth="yes"/>
      <point x="318" y="954"/>
      <point x="302" y="931"/>
    </contour>
  </outline>
</glyph>
<glyph name="breve_tilde.uc" format="2">
  <advance width="530"/>
  <anchor x="299" y="694" name="_top"/>
  <outline>
    <contour>
      <point x="240" y="1092" type="curve" smooth="yes"/>
      <point x="289" y="1092"/>
      <point x="289" y="998"/>
      <point x="373" y="998" type="curve" smooth="yes"/>
      <point x="421" y="998"/>
      <point x="456" y="1033"/>
      <point x="494" y="1132" type="curve"/>
      <point x="453" y="1146" type="line"/>
      <point x="430" y="1090"/>
      <point x="409" y="1046"/>
      <point x="377" y="1046" type="curve" smooth="yes"/>
      <point x="331" y="1046"/>
      <point x="328" y="1141"/>
      <point x="247" y="1141" type="curve" smooth="yes"/>
      <point x="191" y="1141"/>
      <point x="164" y="1108"/>
      <point x="127" y="1010" type="curve"/>
      <point x="168" y="997" type="line"/>
      <point x="193" y="1063"/>
      <point x="212" y="1092"/>
    </contour>
    <contour>
      <point x="269" y="794" type="curve" smooth="yes"/>
      <point x="156" y="794"/>
      <point x="116" y="830"/>
      <point x="116" y="895" type="curve" smooth="yes"/>
      <point x="116" y="910"/>
      <point x="117" y="924"/>
      <point x="122" y="947" type="curve"/>
      <point x="162" y="947" type="line"/>
      <point x="156" y="871"/>
      <point x="170" y="847"/>
      <point x="274" y="847" type="curve" smooth="yes"/>
      <point x="358" y="847"/>
      <point x="384" y="860"/>
      <point x="404" y="947" type="curve"/>
      <point x="444" y="947" type="line"/>
      <point x="431" y="842"/>
      <point x="385" y="794"/>
    </contour>
  </outline>
</glyph>
<glyph name="circumflex_acute" format="2">
  <advance width="526"/>
  <anchor x="248" y="558" name="_top"/>
  <outline>
    <contour>
      <point x="530" y="938" type="curve" smooth="yes"/>
      <point x="435" y="819" type="line"/>
      <point x="429" y="801" type="line"/>
      <point x="452" y="801" type="line"/>
      <point x="582" y="899" type="line" smooth="yes"/>
      <point x="619" y="927"/>
      <point x="633" y="934"/>
      <point x="633" y="958" type="curve" smooth="yes"/>
      <point x="633" y="973"/>
      <point x="617" y="989"/>
      <point x="595" y="989" type="curve" smooth="yes"/>
      <point x="568" y="989"/>
      <point x="556" y="972"/>
    </contour>
    <component base="circumflex"/>
  </outline>
</glyph>
<glyph name="circumflex_acute.uc" format="2">
  <advance width="524"/>
  <anchor x="258" y="749" name="_top"/>
  <outline>
    <contour>
      <point x="547" y="1024" type="curve" smooth="yes"/>
      <point x="451" y="937" type="line"/>
      <point x="445" y="917" type="line"/>
      <point x="469" y="917" type="line"/>
      <point x="601" y="986" type="line" smooth="yes"/>
      <point x="640" y="1006"/>
      <point x="664" y="1021"/>
      <point x="664" y="1045" type="curve" smooth="yes"/>
      <point x="664" y="1062"/>
      <point x="650" y="1078"/>
      <point x="626" y="1078" type="curve" smooth="yes"/>
      <point x="595" y="1078"/>
      <point x="578" y="1054"/>
    </contour>
    <component base="circumflex.uc"/>
  </outline>
</glyph>
<glyph name="circumflex_tilde" format="2">
  <advance width="530"/>
  <anchor x="261" y="551" name="_top"/>
  <outline>
    <contour>
      <point x="325" y="816" type="line"/>
      <point x="415" y="677" type="line"/>
      <point x="410" y="656" type="line"/>
      <point x="391" y="656" type="line"/>
      <point x="274" y="770" type="line"/>
      <point x="300" y="777" type="line"/>
      <point x="123" y="656" type="line"/>
      <point x="97" y="656" type="line"/>
      <point x="103" y="677" type="line"/>
      <point x="264" y="816" type="line"/>
    </contour>
    <contour>
      <point x="258" y="1019" type="curve" smooth="yes"/>
      <point x="214" y="1019"/>
      <point x="179" y="991"/>
      <point x="145" y="886" type="curve"/>
      <point x="181" y="878" type="line"/>
      <point x="207" y="944"/>
      <point x="221" y="976"/>
      <point x="251" y="976" type="curve" smooth="yes"/>
      <point x="300" y="976"/>
      <point x="290" y="879"/>
      <point x="377" y="879" type="curve" smooth="yes"/>
      <point x="422" y="879"/>
      <point x="449" y="899"/>
      <point x="487" y="1017" type="curve"/>
      <point x="451" y="1024" type="line"/>
      <point x="427" y="955"/>
      <point x="412" y="921"/>
      <point x="379" y="921" type="curve" smooth="yes"/>
      <point x="324" y="921"/>
      <point x="339" y="1019"/>
    </contour>
  </outline>
</glyph>
<glyph name="dollar.proportional" format="2">
  <advance width="601"/>
  <outline>
    <contour>
      <point x="252" y="14" type="curve" smooth="yes"/>
      <point x="414" y="14"/>
      <point x="526" y="76"/>
      <point x="526" y="209" type="curve" smooth="yes"/>
      <point x="526" y="318"/>
      <point x="421" y="344"/>
      <point x="342" y="373" type="curve" smooth="yes"/>
      <point x="220" y="422"/>
      <point x="170" y="446"/>
      <point x="170" y="520" type="curve" smooth="yes"/>
      <point x="170" y="614"/>
      <point x="235" y="663"/>
      <point x="370" y="663" type="curve" smooth="yes"/>
      <point x="471" y="663"/>
      <point x="543" y="635"/>
      <point x="584" y="614" type="curve"/>
      <point x="587" y="617"/>
      <point x="571" y="666"/>
      <point x="550" y="667" type="curve"/>
      <point x="507" y="501" type="line"/>
      <point x="562" y="501" type="line"/>
      <point x="602" y="648" type="line"/>
      <point x="576" y="661"/>
      <point x="495" y="696"/>
      <point x="372" y="696" type="curve" smooth="yes"/>
      <point x="222" y="696"/>
      <point x="125" y="638"/>
      <point x="125" y="519" type="curve" smooth="yes"/>
      <point x="125" y="417"/>
      <point x="211" y="383"/>
      <point x="290" y="356" type="curve" smooth="yes"/>
      <point x="416" y="306"/>
      <point x="482" y="286"/>
      <point x="482" y="206" type="curve" smooth="yes"/>
      <point x="482" y="102"/>
      <point x="399" y="47"/>
      <point x="255" y="47" type="curve" smooth="yes"/>
      <point x="142" y="47"/>
      <point x="56" y="78"/>
      <point x="20" y="110" type="curve"/>
      <point x="11" y="116"/>
      <point x="19" y="89"/>
      <point x="39" y="72" type="curve"/>
      <point x="84" y="242" type="line"/>
      <point x="28" y="242" type="line"/>
      <point x="-15" y="82" type="line"/>
      <point x="35" y="50"/>
      <point x="127" y="14"/>
    </contour>
    <contour>
      <point x="408" y="817" type="line"/>
      <point x="372" y="683" type="line"/>
      <point x="371" y="670" type="line"/>
      <point x="204" y="37" type="line"/>
      <point x="200" y="32" type="line"/>
      <point x="152" y="-150" type="line"/>
      <point x="193" y="-150" type="line"/>
      <point x="241" y="31" type="line"/>
      <point x="241" y="36" type="line"/>
      <point x="408" y="668" type="line"/>
      <point x="413" y="680" type="line"/>
      <point x="450" y="817" type="line"/>
    </contour>
  </outline>
</glyph>
<glyph name="f.short" format="2">
  <advance width="388"/>
  <outline>
    <contour>
      <point x="81" y="565" type="line"/>
      <point x="73" y="526" type="line"/>
      <point x="425" y="526" type="line"/>
      <point x="433" y="565" type="line"/>
    </contour>
    <contour>
      <point x="99" y="-223" type="line"/>
      <point x="279" y="660" type="line" smooth="yes"/>
      <point x="294" y="730"/>
      <point x="326" y="748"/>
      <point x="386" y="748" type="curve" smooth="yes"/>
      <point x="414" y="748"/>
      <point x="438" y="746"/>
      <point x="462" y="741" type="curve"/>
      <point x="473" y="783" type="line"/>
      <point x="449" y="788"/>
      <point x="426" y="790"/>
      <point x="390" y="790" type="curve" smooth="yes"/>
      <point x="297" y="790"/>
      <point x="243" y="757"/>
      <point x="225" y="665" type="curve" smooth="yes"/>
      <point x="56" y="-223" type="line"/>
    </contour>
  </outline>
</glyph>
<glyph name="f_f.alt" format="2">
  <advance width="773"/>
  <outline>
    <contour>
      <point x="428" y="526" type="line"/>
      <point x="786" y="526" type="line"/>
      <point x="793" y="565" type="line"/>
      <point x="436" y="565" type="line"/>
    </contour>
    <contour>
      <point x="73" y="526" type="line"/>
      <point x="456" y="526" type="line"/>
      <point x="464" y="565" type="line"/>
      <point x="81" y="565" type="line"/>
    </contour>
    <contour>
      <point x="56" y="-223" type="line"/>
      <point x="99" y="-223" type="line"/>
      <point x="274" y="638" type="line" smooth="yes"/>
      <point x="290" y="712"/>
      <point x="329" y="742"/>
      <point x="447" y="742" type="curve" smooth="yes"/>
      <point x="541" y="742"/>
      <point x="602" y="718"/>
      <point x="633" y="702" type="curve"/>
      <point x="627" y="719"/>
      <point x="614" y="732"/>
      <point x="596" y="749" type="curve"/>
      <point x="577" y="645" type="line"/>
      <point x="627" y="643" type="line"/>
      <point x="651" y="732" type="line"/>
      <point x="631" y="742"/>
      <point x="550" y="775"/>
      <point x="449" y="775" type="curve" smooth="yes"/>
      <point x="301" y="775"/>
      <point x="237" y="725"/>
      <point x="221" y="641" type="curve" smooth="yes"/>
    </contour>
    <contour>
      <point x="412" y="-223" type="line"/>
      <point x="454" y="-223" type="line"/>
      <point x="634" y="660" type="line" smooth="yes"/>
      <point x="647" y="722"/>
      <point x="676" y="757"/>
      <point x="753" y="757" type="curve" smooth="yes"/>
      <point x="797" y="757"/>
      <point x="837" y="746"/>
      <point x="867" y="734" type="curve"/>
      <point x="860" y="752"/>
      <point x="851" y="763"/>
      <point x="838" y="776" type="curve"/>
      <point x="810" y="664" type="line"/>
      <point x="858" y="664" type="line"/>
      <point x="887" y="766" type="line"/>
      <point x="865" y="775"/>
      <point x="810" y="790"/>
      <point x="752" y="790" type="curve" smooth="yes"/>
      <point x="646" y="790"/>
      <point x="596" y="739"/>
      <point x="580" y="665" type="curve" smooth="yes"/>
    </contour>
  </outline>
</glyph>
<glyph name="f_f_h.alt" format="2">
  <advance width="1414"/>
  <outline>
    <contour>
      <point x="436" y="565" type="line"/>
      <point x="428" y="526" type="line"/>
      <point x="772" y="526" type="line"/>
      <point x="780" y="565" type="line"/>
    </contour>
    <contour>
      <point x="454" y="-223" type="line"/>
      <point x="634" y="660" type="line" smooth="yes"/>
      <point x="646" y="721"/>
      <point x="686" y="754"/>
      <point x="795" y="754" type="curve" smooth="yes"/>
      <point x="864" y="754"/>
      <point x="960" y="734"/>
      <point x="999" y="721" type="curve"/>
      <point x="1008" y="753" type="line"/>
      <point x="970" y="765"/>
      <point x="885" y="790"/>
      <point x="798" y="790" type="curve" smooth="yes"/>
      <point x="660" y="790"/>
      <point x="596" y="745"/>
      <point x="580" y="665" type="curve" smooth="yes"/>
      <point x="412" y="-223" type="line"/>
    </contour>
    <contour>
      <point x="842" y="0" type="line"/>
      <point x="1049" y="780" type="line"/>
      <point x="835" y="780" type="line"/>
      <point x="987" y="740" type="line"/>
      <point x="792" y="0" type="line"/>
    </contour>
    <contour>
      <point x="1195" y="160" type="line" smooth="yes"/>
      <point x="1179" y="117"/>
      <point x="1167" y="82"/>
      <point x="1167" y="51" type="curve" smooth="yes"/>
      <point x="1167" y="16"/>
      <point x="1196" y="0"/>
      <point x="1239" y="0" type="curve" smooth="yes"/>
      <point x="1272" y="0"/>
      <point x="1304" y="0"/>
      <point x="1337" y="0" type="curve"/>
      <point x="1345" y="40" type="line"/>
      <point x="1316" y="40"/>
      <point x="1286" y="40"/>
      <point x="1257" y="40" type="curve" smooth="yes"/>
      <point x="1235" y="40"/>
      <point x="1222" y="48"/>
      <point x="1222" y="67" type="curve" smooth="yes"/>
      <point x="1222" y="80"/>
      <point x="1223" y="88"/>
      <point x="1238" y="126" type="curve" smooth="yes"/>
      <point x="1307" y="379" type="line" smooth="yes"/>
      <point x="1321" y="430"/>
      <point x="1330" y="464"/>
      <point x="1330" y="496" type="curve" smooth="yes"/>
      <point x="1330" y="541"/>
      <point x="1303" y="575"/>
      <point x="1221" y="575" type="curve" smooth="yes"/>
      <point x="1115" y="575"/>
      <point x="1019" y="483"/>
      <point x="913" y="367" type="curve"/>
      <point x="925" y="345" type="line"/>
      <point x="1038" y="465"/>
      <point x="1120" y="532"/>
      <point x="1205" y="532" type="curve" smooth="yes"/>
      <point x="1257" y="532"/>
      <point x="1276" y="516"/>
      <point x="1276" y="483" type="curve" smooth="yes"/>
      <point x="1276" y="458"/>
      <point x="1270" y="430"/>
      <point x="1257" y="382" type="curve" smooth="yes"/>
    </contour>
    <contour>
      <point x="81" y="565" type="line"/>
      <point x="73" y="526" type="line"/>
      <point x="456" y="526" type="line"/>
      <point x="464" y="565" type="line"/>
    </contour>
    <contour>
      <point x="651" y="732" type="line"/>
      <point x="631" y="742"/>
      <point x="550" y="775"/>
      <point x="449" y="775" type="curve" smooth="yes"/>
      <point x="301" y="775"/>
      <point x="237" y="725"/>
      <point x="221" y="641" type="curve" smooth="yes"/>
      <point x="56" y="-223" type="line"/>
      <point x="99" y="-223" type="line"/>
      <point x="274" y="638" type="line" smooth="yes"/>
      <point x="290" y="712"/>
      <point x="329" y="742"/>
      <point x="447" y="742" type="curve" smooth="yes"/>
      <point x="541" y="742"/>
      <point x="602" y="718"/>
      <point x="633" y="702" type="curve"/>
      <point x="626" y="724"/>
      <point x="613" y="737"/>
      <point x="596" y="749" type="curve"/>
      <point x="577" y="645" type="line"/>
      <point x="627" y="643" type="line"/>
    </contour>
  </outline>
</glyph>
<glyph name="f_f_j.alt" format="2">
  <advance width="1076"/>
  <outline>
    <contour>
      <point x="81" y="565" type="line"/>
      <point x="73" y="526" type="line"/>
      <point x="456" y="526" type="line"/>
      <point x="464" y="565" type="line"/>
    </contour>
    <contour>
      <point x="682" y="-250" type="curve" smooth="yes"/>
      <point x="764" y="-250"/>
      <point x="812" y="-211"/>
      <point x="837" y="-100" type="curve" smooth="yes"/>
      <point x="984" y="565" type="line"/>
      <point x="436" y="565" type="line"/>
      <point x="428" y="526" type="line"/>
      <point x="784" y="526" type="line" smooth="yes"/>
      <point x="859" y="526"/>
      <point x="923" y="518"/>
      <point x="915" y="483" type="curve" smooth="yes"/>
      <point x="789" y="-89" type="line" smooth="yes"/>
      <point x="769" y="-184"/>
      <point x="740" y="-209"/>
      <point x="681" y="-209" type="curve" smooth="yes"/>
      <point x="645" y="-209"/>
      <point x="612" y="-198"/>
      <point x="593" y="-192" type="curve"/>
      <point x="579" y="-231" type="line"/>
      <point x="597" y="-239"/>
      <point x="636" y="-250"/>
    </contour>
    <contour>
      <point x="412" y="-223" type="line"/>
      <point x="454" y="-223" type="line"/>
      <point x="632" y="647" type="line" smooth="yes"/>
      <point x="646" y="718"/>
      <point x="683" y="757"/>
      <point x="812" y="757" type="curve" smooth="yes"/>
      <point x="875" y="757"/>
      <point x="938" y="743"/>
      <point x="982" y="728" type="curve"/>
      <point x="982" y="753"/>
      <point x="972" y="768"/>
      <point x="955" y="777" type="curve"/>
      <point x="927" y="665" type="line"/>
      <point x="975" y="665" type="line"/>
      <point x="1002" y="760" type="line"/>
      <point x="972" y="772"/>
      <point x="894" y="790"/>
      <point x="814" y="790" type="curve" smooth="yes"/>
      <point x="658" y="790"/>
      <point x="595" y="735"/>
      <point x="578" y="652" type="curve" smooth="yes"/>
    </contour>
    <contour>
      <point x="56" y="-223" type="line"/>
      <point x="99" y="-223" type="line"/>
      <point x="274" y="638" type="line" smooth="yes"/>
      <point x="290" y="712"/>
      <point x="329" y="742"/>
      <point x="447" y="742" type="curve" smooth="yes"/>
      <point x="541" y="742"/>
      <point x="602" y="718"/>
      <point x="633" y="702" type="curve"/>
      <point x="634" y="723"/>
      <point x="621" y="736"/>
      <point x="596" y="749" type="curve"/>
      <point x="577" y="645" type="line"/>
      <point x="627" y="643" type="line"/>
      <point x="651" y="732" type="line"/>
      <point x="631" y="742"/>
      <point x="550" y="775"/>
      <point x="449" y="775" type="curve" smooth="yes"/>
      <point x="301" y="775"/>
      <point x="237" y="725"/>
      <point x="221" y="641" type="curve" smooth="yes"/>
    </contour>
  </outline>
</glyph>
<glyph name="f_f_k" format="2">
  <advance width="1322"/>
  <outline>
    <contour>
      <point x="81" y="565" type="line"/>
      <point x="73" y="526" type="line"/>
      <point x="462" y="526" type="line"/>
      <point x="469" y="565" type="line"/>
    </contour>
    <contour>
      <point x="99" y="-223" type="line"/>
      <point x="276" y="645" type="line" smooth="yes"/>
      <point x="290" y="716"/>
      <point x="318" y="733"/>
      <point x="380" y="733" type="curve" smooth="yes"/>
      <point x="413" y="733"/>
      <point x="444" y="727"/>
      <point x="471" y="722" type="curve"/>
      <point x="480" y="764" type="line"/>
      <point x="459" y="769"/>
      <point x="425" y="775"/>
      <point x="384" y="775" type="curve" smooth="yes"/>
      <point x="291" y="775"/>
      <point x="240" y="740"/>
      <point x="222" y="650" type="curve" smooth="yes"/>
      <point x="56" y="-223" type="line"/>
    </contour>
    <contour>
      <point x="436" y="565" type="line"/>
      <point x="428" y="526" type="line"/>
      <point x="772" y="526" type="line"/>
      <point x="780" y="565" type="line"/>
    </contour>
    <contour>
      <point x="454" y="-223" type="line"/>
      <point x="634" y="660" type="line" smooth="yes"/>
      <point x="646" y="721"/>
      <point x="686" y="754"/>
      <point x="795" y="754" type="curve" smooth="yes"/>
      <point x="864" y="754"/>
      <point x="960" y="734"/>
      <point x="999" y="721" type="curve"/>
      <point x="1008" y="753" type="line"/>
      <point x="970" y="765"/>
      <point x="885" y="790"/>
      <point x="798" y="790" type="curve" smooth="yes"/>
      <point x="660" y="790"/>
      <point x="596" y="745"/>
      <point x="580" y="665" type="curve" smooth="yes"/>
      <point x="412" y="-223" type="line"/>
    </contour>
    <contour>
      <point x="1157" y="62" type="line" smooth="yes"/>
      <point x="1165" y="45"/>
      <point x="1175" y="40"/>
      <point x="1200" y="40" type="curve"/>
      <point x="1221" y="40"/>
      <point x="1243" y="40"/>
      <point x="1264" y="40" type="curve"/>
      <point x="1260" y="0" type="line"/>
      <point x="1239" y="0"/>
      <point x="1218" y="0"/>
      <point x="1196" y="0" type="curve" smooth="yes"/>
      <point x="1143" y="0"/>
      <point x="1131" y="12"/>
      <point x="1103" y="67" type="curve" smooth="yes"/>
      <point x="981" y="304" type="line"/>
      <point x="982" y="309" type="line"/>
      <point x="1076" y="395"/>
      <point x="1169" y="479"/>
      <point x="1263" y="565" type="curve"/>
      <point x="1325" y="565" type="line"/>
      <point x="1325" y="550" type="line"/>
      <point x="1224" y="470"/>
      <point x="1124" y="391"/>
      <point x="1024" y="311" type="curve"/>
      <point x="1022" y="324" type="line"/>
    </contour>
    <contour>
      <point x="792" y="0" type="line"/>
      <point x="841" y="0" type="line"/>
      <point x="1047" y="780" type="line"/>
      <point x="867" y="780" type="line"/>
      <point x="987" y="745" type="line"/>
    </contour>
  </outline>
</glyph>
<glyph name="f_j.alt" format="2">
  <advance width="724"/>
  <outline>
    <contour>
      <point x="56" y="-223" type="line"/>
      <point x="99" y="-223" type="line"/>
      <point x="276" y="647" type="line" smooth="yes"/>
      <point x="291" y="718"/>
      <point x="328" y="757"/>
      <point x="457" y="757" type="curve" smooth="yes"/>
      <point x="520" y="757"/>
      <point x="583" y="743"/>
      <point x="626" y="728" type="curve"/>
      <point x="625" y="746"/>
      <point x="606" y="758"/>
      <point x="600" y="777" type="curve"/>
      <point x="572" y="665" type="line"/>
      <point x="620" y="665" type="line"/>
      <point x="647" y="760" type="line"/>
      <point x="617" y="772"/>
      <point x="539" y="790"/>
      <point x="459" y="790" type="curve" smooth="yes"/>
      <point x="303" y="790"/>
      <point x="239" y="735"/>
      <point x="223" y="652" type="curve" smooth="yes"/>
    </contour>
    <contour>
      <point x="326" y="-250" type="curve" smooth="yes"/>
      <point x="409" y="-250"/>
      <point x="457" y="-211"/>
      <point x="482" y="-100" type="curve" smooth="yes"/>
      <point x="628" y="565" type="line"/>
      <point x="81" y="565" type="line"/>
      <point x="73" y="526" type="line"/>
      <point x="429" y="526" type="line" smooth="yes"/>
      <point x="503" y="526"/>
      <point x="568" y="518"/>
      <point x="560" y="483" type="curve" smooth="yes"/>
      <point x="434" y="-89" type="line" smooth="yes"/>
      <point x="414" y="-184"/>
      <point x="385" y="-209"/>
      <point x="326" y="-209" type="curve" smooth="yes"/>
      <point x="290" y="-209"/>
      <point x="257" y="-198"/>
      <point x="237" y="-192" type="curve"/>
      <point x="224" y="-231" type="line"/>
      <point x="242" y="-239"/>
      <point x="281" y="-250"/>
    </contour>
  </outline>
</glyph>
<glyph name="f_k" format="2">
  <advance width="967"/>
  <outline>
    <contour>
      <point x="81" y="565" type="line"/>
      <point x="73" y="526" type="line"/>
      <point x="417" y="526" type="line"/>
      <point x="425" y="565" type="line"/>
    </contour>
    <contour>
      <point x="666" y="324" type="line"/>
      <point x="801" y="62" type="line" smooth="yes"/>
      <point x="810" y="45"/>
      <point x="820" y="40"/>
      <point x="845" y="40" type="curve" smooth="yes"/>
      <point x="866" y="40"/>
      <point x="888" y="40"/>
      <point x="909" y="40" type="curve"/>
      <point x="905" y="0" type="line"/>
      <point x="884" y="0"/>
      <point x="863" y="0"/>
      <point x="841" y="0" type="curve" smooth="yes"/>
      <point x="788" y="0"/>
      <point x="776" y="12"/>
      <point x="748" y="67" type="curve" smooth="yes"/>
      <point x="625" y="304" type="line"/>
      <point x="626" y="309" type="line"/>
      <point x="721" y="395"/>
      <point x="814" y="479"/>
      <point x="908" y="565" type="curve"/>
      <point x="969" y="565" type="line"/>
      <point x="969" y="550" type="line"/>
      <point x="869" y="470"/>
      <point x="769" y="391"/>
      <point x="669" y="311" type="curve"/>
    </contour>
    <contour>
      <point x="486" y="0" type="line"/>
      <point x="691" y="780" type="line"/>
      <point x="512" y="780" type="line"/>
      <point x="631" y="745" type="line"/>
      <point x="437" y="0" type="line"/>
    </contour>
    <contour>
      <point x="439" y="754" type="curve" smooth="yes"/>
      <point x="509" y="754"/>
      <point x="604" y="734"/>
      <point x="644" y="721" type="curve"/>
      <point x="653" y="753" type="line"/>
      <point x="615" y="765"/>
      <point x="530" y="790"/>
      <point x="443" y="790" type="curve" smooth="yes"/>
      <point x="305" y="790"/>
      <point x="241" y="745"/>
      <point x="225" y="665" type="curve" smooth="yes"/>
      <point x="56" y="-223" type="line"/>
      <point x="99" y="-223" type="line"/>
      <point x="279" y="660" type="line" smooth="yes"/>
      <point x="291" y="721"/>
      <point x="331" y="754"/>
    </contour>
  </outline>
</glyph>
<glyph name="florin" format="2">
  <advance width="594"/>
  <outline>
    <contour>
      <point x="182" y="565" type="line"/>
      <point x="165" y="529" type="line"/>
      <point x="538" y="529" type="line"/>
      <point x="556" y="565" type="line"/>
    </contour>
    <contour>
      <point x="143" y="-90" type="curve" smooth="yes"/>
      <point x="380" y="627" type="line" smooth="yes"/>
      <point x="402" y="692"/>
      <point x="423" y="750"/>
      <point x="526" y="750" type="curve" smooth="yes"/>
      <point x="578" y="750"/>
      <point x="625" y="735"/>
      <point x="651" y="727" type="curve"/>
      <point x="664" y="767" type="line"/>
      <point x="635" y="779"/>
      <point x="585" y="790"/>
      <point x="530" y="790" type="curve" smooth="yes"/>
      <point x="426" y="790"/>
      <point x="369" y="743"/>
      <point x="338" y="651" type="curve" smooth="yes"/>
      <point x="98" y="-80" type="line" smooth="yes"/>
      <point x="69" y="-170"/>
      <point x="31" y="-210"/>
      <point x="-45" y="-210" type="curve" smooth="yes"/>
      <point x="-88" y="-210"/>
      <point x="-115" y="-201"/>
      <point x="-138" y="-194" type="curve"/>
      <point x="-149" y="-233" type="line"/>
      <point x="-125" y="-242"/>
      <point x="-87" y="-250"/>
      <point x="-49" y="-250" type="curve" smooth="yes"/>
      <point x="47" y="-250"/>
      <point x="107" y="-201"/>
    </contour>
  </outline>
</glyph>
<glyph name="four.midprop" format="2">
  <advance width="633"/>
  <outline>
    <contour>
      <point x="3" y="165" type="line"/>
      <point x="562" y="165" type="line"/>
      <point x="574" y="206" type="line"/>
      <point x="46" y="206" type="line"/>
      <point x="41" y="186" type="line"/>
      <point x="522" y="670" type="line"/>
      <point x="515" y="675" type="line"/>
      <point x="476" y="675" type="line"/>
      <point x="18" y="218" type="line"/>
    </contour>
    <contour>
      <point x="367" y="-40" type="line"/>
      <point x="557" y="675" type="line"/>
      <point x="492" y="675" type="line"/>
      <point x="505" y="663" type="line"/>
      <point x="319" y="-40" type="line"/>
    </contour>
  </outline>
</glyph>
<glyph name="grave.uc" format="2">
  <advance width="530"/>
  <anchor x="283" y="694" name="_top"/>
  <outline>
    <contour>
      <point x="352" y="793" type="line"/>
      <point x="230" y="866" type="line" smooth="yes"/>
      <point x="205" y="880"/>
      <point x="180" y="895"/>
      <point x="180" y="917" type="curve" smooth="yes"/>
      <point x="180" y="938"/>
      <point x="200" y="954"/>
      <point x="224" y="954" type="curve" smooth="yes"/>
      <point x="254" y="954"/>
      <point x="276" y="926"/>
      <point x="308" y="888" type="curve" smooth="yes"/>
      <point x="379" y="814" type="line"/>
      <point x="372" y="793" type="line"/>
    </contour>
  </outline>
</glyph>
<glyph name="kip.proportional" format="2">
  <advance width="638"/>
  <outline>
    <contour>
      <point x="-17" y="0" type="line"/>
      <point x="168" y="0" type="line"/>
      <point x="179" y="36" type="line"/>
      <point x="170" y="36" type="line" smooth="yes"/>
      <point x="138" y="36"/>
      <point x="112" y="39"/>
      <point x="114" y="46" type="curve" smooth="yes"/>
      <point x="275" y="664" type="line" smooth="yes"/>
      <point x="277" y="671"/>
      <point x="304" y="674"/>
      <point x="335" y="674" type="curve" smooth="yes"/>
      <point x="345" y="674" type="line"/>
      <point x="356" y="710" type="line"/>
      <point x="171" y="710" type="line"/>
      <point x="160" y="674" type="line"/>
      <point x="172" y="674" type="line" smooth="yes"/>
      <point x="204" y="674"/>
      <point x="225" y="667"/>
      <point x="217" y="638" type="curve" smooth="yes"/>
      <point x="70" y="72" type="line" smooth="yes"/>
      <point x="62" y="43"/>
      <point x="38" y="36"/>
      <point x="6" y="36" type="curve" smooth="yes"/>
      <point x="-6" y="36" type="line"/>
    </contour>
    <contour>
      <point x="81" y="391" type="line"/>
      <point x="71" y="357" type="line"/>
      <point x="540" y="357" type="line"/>
      <point x="550" y="391" type="line"/>
    </contour>
    <contour>
      <point x="359" y="0" type="line"/>
      <point x="539" y="0" type="line"/>
      <point x="550" y="36" type="line"/>
      <point x="537" y="36" type="line" smooth="yes"/>
      <point x="509" y="36"/>
      <point x="497" y="42"/>
      <point x="483" y="69" type="curve" smooth="yes"/>
      <point x="311" y="378" type="line"/>
      <point x="308" y="364" type="line"/>
      <point x="605" y="645" type="line" smooth="yes"/>
      <point x="632" y="671"/>
      <point x="651" y="674"/>
      <point x="670" y="674" type="curve" smooth="yes"/>
      <point x="686" y="674" type="line"/>
      <point x="697" y="710" type="line"/>
      <point x="521" y="710" type="line"/>
      <point x="510" y="674" type="line"/>
      <point x="518" y="674" type="line" smooth="yes"/>
      <point x="546" y="674"/>
      <point x="575" y="671"/>
      <point x="574" y="664" type="curve"/>
      <point x="267" y="371" type="line"/>
      <point x="272" y="357" type="line"/>
      <point x="439" y="46" type="line"/>
      <point x="438" y="39"/>
      <point x="409" y="36"/>
      <point x="379" y="36" type="curve" smooth="yes"/>
      <point x="370" y="36" type="line"/>
    </contour>
  </outline>
</glyph>
<glyph name="lira.proportional" format="2">
  <advance width="618"/>
  <outline>
    <contour>
      <point x="177" y="124" type="line"/>
      <point x="255" y="41"/>
      <point x="285" y="-10"/>
      <point x="386" y="-10" type="curve" smooth="yes"/>
      <point x="476" y="-10"/>
      <point x="524" y="30"/>
      <point x="573" y="164" type="curve"/>
      <point x="531" y="178" type="line"/>
      <point x="489" y="74"/>
      <point x="458" y="40"/>
      <point x="390" y="40" type="curve" smooth="yes"/>
      <point x="310" y="40"/>
      <point x="266" y="88"/>
      <point x="203" y="162" type="curve"/>
    </contour>
    <contour>
      <point x="84" y="461" type="line"/>
      <point x="74" y="427" type="line"/>
      <point x="492" y="427" type="line"/>
      <point x="501" y="461" type="line"/>
    </contour>
    <contour>
      <point x="38" y="288" type="line"/>
      <point x="28" y="254" type="line"/>
      <point x="446" y="254" type="line"/>
      <point x="455" y="288" type="line"/>
    </contour>
    <contour>
      <point x="417" y="735" type="curve" smooth="yes"/>
      <point x="262" y="735"/>
      <point x="164" y="662"/>
      <point x="164" y="527" type="curve" smooth="yes"/>
      <point x="164" y="438"/>
      <point x="206" y="372"/>
      <point x="206" y="266" type="curve" smooth="yes"/>
      <point x="206" y="150"/>
      <point x="123" y="85"/>
      <point x="-10" y="30" type="curve"/>
      <point x="-22" y="-9" type="line"/>
      <point x="150" y="50"/>
      <point x="251" y="129"/>
      <point x="251" y="286" type="curve" smooth="yes"/>
      <point x="251" y="377"/>
      <point x="216" y="452"/>
      <point x="216" y="534" type="curve" smooth="yes"/>
      <point x="216" y="641"/>
      <point x="290" y="699"/>
      <point x="413" y="699" type="curve" smooth="yes"/>
      <point x="488" y="699"/>
      <point x="540" y="687"/>
      <point x="597" y="652" type="curve"/>
      <point x="587" y="668"/>
      <point x="590" y="691"/>
      <point x="568" y="706" type="curve"/>
      <point x="533" y="573" type="line"/>
      <point x="581" y="573" type="line"/>
      <point x="614" y="692" type="line"/>
      <point x="598" y="700"/>
      <point x="533" y="735"/>
    </contour>
  </outline>
</glyph>
<glyph name="liraTurkish.proportional" format="2">
  <advance width="661"/>
  <outline>
    <contour>
      <point x="28" y="236" type="line"/>
      <point x="16" y="198" type="line"/>
      <point x="507" y="382" type="line"/>
      <point x="518" y="420" type="line"/>
    </contour>
    <contour>
      <point x="77" y="425" type="line"/>
      <point x="66" y="387" type="line"/>
      <point x="556" y="571" type="line"/>
      <point x="568" y="609" type="line"/>
    </contour>
    <contour>
      <point x="296" y="35" type="curve" smooth="yes"/>
      <point x="133" y="35" type="line"/>
      <point x="290" y="638" type="line" smooth="yes"/>
      <point x="297" y="667"/>
      <point x="339" y="674"/>
      <point x="382" y="674" type="curve" smooth="yes"/>
      <point x="389" y="674" type="line"/>
      <point x="400" y="710" type="line"/>
      <point x="159" y="710" type="line"/>
      <point x="148" y="674" type="line"/>
      <point x="163" y="674" type="line" smooth="yes"/>
      <point x="215" y="674"/>
      <point x="248" y="667"/>
      <point x="240" y="638" type="curve" smooth="yes"/>
      <point x="93" y="72" type="line" smooth="yes"/>
      <point x="86" y="43"/>
      <point x="49" y="36"/>
      <point x="-3" y="36" type="curve" smooth="yes"/>
      <point x="-18" y="36" type="line"/>
      <point x="-29" y="0" type="line"/>
      <point x="260" y="0" type="line" smooth="yes"/>
      <point x="476" y="0"/>
      <point x="570" y="98"/>
      <point x="616" y="264" type="curve"/>
      <point x="568" y="272" type="line"/>
      <point x="539" y="141"/>
      <point x="462" y="35"/>
    </contour>
  </outline>
</glyph>
<glyph name="manat.proportional" format="2">
  <advance width="703"/>
  <outline>
    <contour>
      <point x="453" y="760" type="line"/>
      <point x="285" y="124" type="line"/>
      <point x="324" y="124" type="line"/>
      <point x="493" y="760" type="line"/>
    </contour>
    <contour>
      <point x="-17" y="0" type="curve"/>
      <point x="43" y="0" type="line"/>
      <point x="175" y="452"/>
      <point x="228" y="571"/>
      <point x="415" y="571" type="curve" smooth="yes"/>
      <point x="618" y="571"/>
      <point x="604" y="447"/>
      <point x="505" y="0" type="curve"/>
      <point x="564" y="0" type="line"/>
      <point x="666" y="465"/>
      <point x="647" y="604"/>
      <point x="419" y="604" type="curve" smooth="yes"/>
      <point x="194" y="604"/>
      <point x="116" y="456"/>
    </contour>
  </outline>
</glyph>
<glyph name="nine.oldtab" format="2">
  <advance width="594"/>
  <outline>
    <contour>
      <point x="33" y="-44" type="line"/>
      <point x="263" y="-47"/>
      <point x="392" y="58"/>
      <point x="451" y="218" type="curve" smooth="yes"/>
      <point x="477" y="282"/>
      <point x="489" y="355"/>
      <point x="489" y="442" type="curve" smooth="yes"/>
      <point x="489" y="585"/>
      <point x="422" y="627"/>
      <point x="325" y="627" type="curve" smooth="yes"/>
      <point x="236" y="627"/>
      <point x="181" y="575"/>
      <point x="151" y="510" type="curve" smooth="yes"/>
      <point x="129" y="463"/>
      <point x="120" y="409"/>
      <point x="120" y="364" type="curve" smooth="yes"/>
      <point x="120" y="287"/>
      <point x="162" y="237"/>
      <point x="260" y="237" type="curve" smooth="yes"/>
      <point x="357" y="237"/>
      <point x="410" y="298"/>
      <point x="501" y="427" type="curve"/>
      <point x="497" y="385" type="line"/>
      <point x="423" y="261"/>
      <point x="342" y="196"/>
      <point x="250" y="196" type="curve" smooth="yes"/>
      <point x="134" y="196"/>
      <point x="65" y="260"/>
      <point x="65" y="366" type="curve" smooth="yes"/>
      <point x="65" y="510"/>
      <point x="148" y="667"/>
      <point x="328" y="667" type="curve" smooth="yes"/>
      <point x="464" y="667"/>
      <point x="539" y="602"/>
      <point x="539" y="444" type="curve" smooth="yes"/>
      <point x="539" y="174"/>
      <point x="411" y="-84"/>
      <point x="31" y="-83" type="curve"/>
    </contour>
  </outline>
</glyph>
<glyph name="one.midprop" format="2">
  <advance width="507"/>
  <outline>
    <contour>
      <point x="239" y="72" type="curve" smooth="yes"/>
      <point x="398" y="683" type="line"/>
      <point x="357" y="683" type="line"/>
      <point x="309" y="602"/>
      <point x="245" y="580"/>
      <point x="145" y="577" type="curve"/>
      <point x="133" y="535" type="line"/>
      <point x="223" y="535"/>
      <point x="318" y="573"/>
      <point x="352" y="641" type="curve"/>
      <point x="334" y="627" type="line"/>
      <point x="191" y="72" type="line" smooth="yes"/>
      <point x="183" y="43"/>
      <point x="139" y="36"/>
      <point x="58" y="36" type="curve" smooth="yes"/>
      <point x="21" y="36" type="line"/>
      <point x="11" y="0" type="line"/>
      <point x="370" y="0" type="line"/>
      <point x="380" y="36" type="line"/>
      <point x="363" y="36" type="line" smooth="yes"/>
      <point x="276" y="36"/>
      <point x="231" y="43"/>
    </contour>
  </outline>
</glyph>
<glyph name="parenleft.uc" format="2">
  <advance width="394"/>
  <outline>
    <contour>
      <point x="213" y="-80" type="curve"/>
      <point x="266" y="-80" type="line"/>
      <point x="267" y="-77" type="line"/>
      <point x="197" y="-15"/>
      <point x="124" y="99"/>
      <point x="124" y="248" type="curve" smooth="yes"/>
      <point x="124" y="457"/>
      <point x="283" y="642"/>
      <point x="481" y="747" type="curve"/>
      <point x="482" y="750" type="line"/>
      <point x="424" y="750" type="line"/>
      <point x="243" y="667"/>
      <point x="70" y="478"/>
      <point x="70" y="248" type="curve" smooth="yes"/>
      <point x="70" y="87"/>
      <point x="141" y="-13"/>
    </contour>
  </outline>
</glyph>
<glyph name="ringhalfleft" format="2">
  <advance width="530"/>
  <anchor x="261" y="566" name="_top"/>
  <outline>
    <contour>
      <point x="249" y="644" type="curve"/>
      <point x="249" y="679" type="line"/>
      <point x="202" y="679"/>
      <point x="173" y="702"/>
      <point x="173" y="744" type="curve" smooth="yes"/>
      <point x="173" y="791"/>
      <point x="202" y="827"/>
      <point x="260" y="827" type="curve"/>
      <point x="260" y="862" type="line"/>
      <point x="174" y="862"/>
      <point x="120" y="814"/>
      <point x="120" y="742" type="curve" smooth="yes"/>
      <point x="120" y="687"/>
      <point x="167" y="644"/>
    </contour>
  </outline>
</glyph>
<glyph name="seven.oldprop" format="2">
  <advance width="566"/>
  <outline>
    <contour>
      <point x="300" y="620" type="line" smooth="yes"/>
      <point x="209" y="620"/>
      <point x="169" y="613"/>
      <point x="157" y="577" type="curve" smooth="yes"/>
      <point x="116" y="457" type="line"/>
      <point x="70" y="457" type="line"/>
      <point x="122" y="657" type="line"/>
      <point x="614" y="657" type="line"/>
      <point x="601" y="614" type="line"/>
      <point x="417" y="468"/>
      <point x="270" y="274"/>
      <point x="181" y="-59" type="curve"/>
      <point x="120" y="-59" type="line"/>
      <point x="222" y="294"/>
      <point x="408" y="495"/>
      <point x="581" y="639" type="curve"/>
      <point x="584" y="620" type="line"/>
    </contour>
  </outline>
</glyph>
<glyph name="six.lintab" format="2">
  <advance width="594"/>
  <outline>
    <contour>
      <point x="258" y="-10" type="curve" smooth="yes"/>
      <point x="429" y="-10"/>
      <point x="522" y="164"/>
      <point x="522" y="298" type="curve" smooth="yes"/>
      <point x="522" y="404"/>
      <point x="456" y="468"/>
      <point x="346" y="468" type="curve" smooth="yes"/>
      <point x="253" y="468"/>
      <point x="172" y="402"/>
      <point x="88" y="278" type="curve"/>
      <point x="83" y="234" type="line"/>
      <point x="183" y="362"/>
      <point x="237" y="428"/>
      <point x="335" y="428" type="curve" smooth="yes"/>
      <point x="429" y="428"/>
      <point x="468" y="376"/>
      <point x="468" y="300" type="curve" smooth="yes"/>
      <point x="468" y="263"/>
      <point x="459" y="217"/>
      <point x="443" y="173" type="curve" smooth="yes"/>
      <point x="411" y="99"/>
      <point x="352" y="31"/>
      <point x="261" y="31" type="curve" smooth="yes"/>
      <point x="163" y="31"/>
      <point x="97" y="80"/>
      <point x="97" y="217" type="curve" smooth="yes"/>
      <point x="97" y="299"/>
      <point x="110" y="375"/>
      <point x="137" y="440" type="curve" smooth="yes"/>
      <point x="202" y="599"/>
      <point x="344" y="704"/>
      <point x="572" y="701" type="curve"/>
      <point x="574" y="740" type="line"/>
      <point x="198" y="744"/>
      <point x="46" y="471"/>
      <point x="46" y="213" type="curve" smooth="yes"/>
      <point x="46" y="65"/>
      <point x="122" y="-10"/>
    </contour>
  </outline>
</glyph>
<glyph name="sterling.altprop" format="2">
  <advance width="624"/>
  <outline>
    <contour>
      <point x="52" y="366" type="line"/>
      <point x="42" y="332" type="line"/>
      <point x="472" y="332" type="line"/>
      <point x="481" y="366" type="line"/>
    </contour>
    <contour>
      <point x="-16" y="0" type="line"/>
      <point x="505" y="0" type="line"/>
      <point x="557" y="201" type="line"/>
      <point x="513" y="201" type="line"/>
      <point x="468" y="81" type="line" smooth="yes"/>
      <point x="454" y="45"/>
      <point x="415" y="36"/>
      <point x="324" y="36" type="curve" smooth="yes"/>
      <point x="15" y="36" type="line"/>
      <point x="33" y="13" type="line"/>
      <point x="169" y="86"/>
      <point x="241" y="164"/>
      <point x="241" y="280" type="curve" smooth="yes"/>
      <point x="241" y="375"/>
      <point x="204" y="451"/>
      <point x="204" y="532" type="curve" smooth="yes"/>
      <point x="204" y="645"/>
      <point x="280" y="699"/>
      <point x="404" y="699" type="curve" smooth="yes"/>
      <point x="480" y="699"/>
      <point x="532" y="685"/>
      <point x="588" y="656" type="curve"/>
      <point x="578" y="667"/>
      <point x="582" y="691"/>
      <point x="559" y="706" type="curve"/>
      <point x="518" y="549" type="line"/>
      <point x="566" y="549" type="line"/>
      <point x="605" y="694" type="line"/>
      <point x="590" y="702"/>
      <point x="523" y="735"/>
      <point x="407" y="735" type="curve" smooth="yes"/>
      <point x="253" y="735"/>
      <point x="150" y="663"/>
      <point x="150" y="526" type="curve" smooth="yes"/>
      <point x="150" y="438"/>
      <point x="193" y="369"/>
      <point x="193" y="262" type="curve" smooth="yes"/>
      <point x="193" y="160"/>
      <point x="110" y="92"/>
      <point x="-5" y="32" type="curve"/>
    </contour>
  </outline>
</glyph>
<glyph name="thai:baht.proportional" format="2">
  <advance width="683"/>
  <outline>
    <contour>
      <point x="450" y="790" type="line"/>
      <point x="422" y="689" type="line"/>
      <point x="421" y="673" type="line"/>
      <point x="253" y="33" type="line"/>
      <point x="248" y="23" type="line"/>
      <point x="212" y="-110" type="line"/>
      <point x="253" y="-110" type="line"/>
      <point x="288" y="25" type="line"/>
      <point x="288" y="37" type="line"/>
      <point x="456" y="675" type="line"/>
      <point x="463" y="686" type="line"/>
      <point x="490" y="790" type="line"/>
    </contour>
    <contour>
      <point x="426" y="371" type="line"/>
      <point x="573" y="380"/>
      <point x="640" y="446"/>
      <point x="640" y="555" type="curve" smooth="yes"/>
      <point x="640" y="631"/>
      <point x="571" y="700"/>
      <point x="422" y="700" type="curve" smooth="yes"/>
      <point x="149" y="700" type="line"/>
      <point x="138" y="664" type="line"/>
      <point x="150" y="664" type="line" smooth="yes"/>
      <point x="191" y="664"/>
      <point x="206" y="656"/>
      <point x="199" y="628" type="curve" smooth="yes"/>
      <point x="56" y="82" type="line" smooth="yes"/>
      <point x="49" y="53"/>
      <point x="25" y="46"/>
      <point x="-11" y="46" type="curve" smooth="yes"/>
      <point x="-23" y="46" type="line"/>
      <point x="-33" y="10" type="line"/>
      <point x="321" y="10" type="line" smooth="yes"/>
      <point x="511" y="10"/>
      <point x="593" y="106"/>
      <point x="593" y="223" type="curve"/>
      <point x="593" y="287"/>
      <point x="544" y="357"/>
      <point x="436" y="375" type="curve"/>
      <point x="452" y="359" type="line"/>
      <point x="458" y="382" type="line"/>
    </contour>
    <contour>
      <point x="187" y="390" type="line"/>
      <point x="259" y="662" type="line"/>
      <point x="424" y="662" type="line"/>
      <point x="538" y="662"/>
      <point x="587" y="620"/>
      <point x="587" y="552" type="curve" smooth="yes"/>
      <point x="587" y="484"/>
      <point x="562" y="390"/>
      <point x="396" y="390" type="curve" smooth="yes"/>
    </contour>
    <contour>
      <point x="97" y="47" type="line"/>
      <point x="178" y="359" type="line"/>
      <point x="373" y="359" type="line" smooth="yes"/>
      <point x="501" y="359"/>
      <point x="538" y="290"/>
      <point x="538" y="221" type="curve" smooth="yes"/>
      <point x="538" y="94"/>
      <point x="474" y="47"/>
      <point x="317" y="47" type="curve" smooth="yes"/>
    </contour>
  </outline>
</glyph>
<glyph name="tilde.uc" format="2">
  <advance width="530"/>
  <anchor x="265" y="694" name="_top"/>
  <outline>
    <contour>
      <point x="329" y="789" type="curve" smooth="yes"/>
      <point x="383" y="789"/>
      <point x="413" y="823"/>
      <point x="452" y="955" type="curve"/>
      <point x="410" y="963" type="line"/>
      <point x="382" y="870"/>
      <point x="366" y="830"/>
      <point x="332" y="830" type="curve" smooth="yes"/>
      <point x="285" y="830"/>
      <point x="294" y="958"/>
      <point x="204" y="958" type="curve" smooth="yes"/>
      <point x="146" y="958"/>
      <point x="111" y="920"/>
      <point x="79" y="797" type="curve"/>
      <point x="119" y="788" type="line"/>
      <point x="144" y="876"/>
      <point x="162" y="916"/>
      <point x="195" y="916" type="curve" smooth="yes"/>
      <point x="246" y="916"/>
      <point x="233" y="789"/>
    </contour>
  </outline>
</glyph>
<glyph name="two.linprop" format="2">
  <advance width="606"/>
  <outline>
    <contour>
      <point x="298" y="33" type="line" smooth="yes"/>
      <point x="385" y="33"/>
      <point x="423" y="40"/>
      <point x="434" y="74" type="curve" smooth="yes"/>
      <point x="471" y="182" type="line"/>
      <point x="518" y="182" type="line"/>
      <point x="473" y="0" type="line"/>
      <point x="-49" y="0" type="line"/>
      <point x="-35" y="41" type="line"/>
      <point x="340" y="289"/>
      <point x="526" y="372"/>
      <point x="526" y="565" type="curve" smooth="yes"/>
      <point x="526" y="660"/>
      <point x="467" y="690"/>
      <point x="357" y="690" type="curve" smooth="yes"/>
      <point x="278" y="690"/>
      <point x="213" y="677"/>
      <point x="178" y="656" type="curve"/>
      <point x="185" y="672"/>
      <point x="210" y="683"/>
      <point x="224" y="687" type="curve"/>
      <point x="179" y="513" type="line"/>
      <point x="115" y="513" type="line"/>
      <point x="163" y="698" type="line"/>
      <point x="194" y="714"/>
      <point x="275" y="735"/>
      <point x="369" y="735" type="curve" smooth="yes"/>
      <point x="511" y="735"/>
      <point x="583" y="681"/>
      <point x="583" y="571" type="curve" smooth="yes"/>
      <point x="583" y="354"/>
      <point x="321" y="228"/>
      <point x="-7" y="20" type="curve"/>
      <point x="-9" y="33" type="line"/>
    </contour>
  </outline>
</glyph>
<glyph name="two.oldtab" format="2">
  <advance width="594"/>
  <outline>
    <contour>
      <point x="495" y="36" type="line"/>
      <point x="35" y="36" type="line"/>
      <point x="42" y="22" type="line"/>
      <point x="341" y="204"/>
      <point x="540" y="303"/>
      <point x="540" y="509" type="curve" smooth="yes"/>
      <point x="540" y="627"/>
      <point x="457" y="667"/>
      <point x="339" y="667" type="curve" smooth="yes"/>
      <point x="257" y="667"/>
      <point x="201" y="648"/>
      <point x="157" y="624" type="curve"/>
      <point x="110" y="440" type="line"/>
      <point x="174" y="440" type="line"/>
      <point x="218" y="608" type="line"/>
      <point x="202" y="603"/>
      <point x="178" y="601"/>
      <point x="169" y="579" type="curve"/>
      <point x="205" y="603"/>
      <point x="247" y="622"/>
      <point x="337" y="622" type="curve" smooth="yes"/>
      <point x="419" y="622"/>
      <point x="482" y="600"/>
      <point x="482" y="502" type="curve" smooth="yes"/>
      <point x="482" y="328"/>
      <point x="354" y="251"/>
      <point x="8" y="40" type="curve"/>
      <point x="-5" y="0" type="line"/>
      <point x="485" y="0" type="line"/>
    </contour>
  </outline>
</glyph>
<glyph name="won.proportional" format="2">
  <advance width="880"/>
  <outline>
    <contour>
      <point x="146" y="710" type="line"/>
      <point x="135" y="672" type="line"/>
      <point x="149" y="672" type="line" smooth="yes"/>
      <point x="173" y="672"/>
      <point x="199" y="669"/>
      <point x="196" y="635" type="curve" smooth="yes"/>
      <point x="145" y="0" type="line"/>
      <point x="205" y="0" type="line"/>
      <point x="544" y="703" type="line"/>
      <point x="527" y="707" type="line"/>
      <point x="494" y="0" type="line"/>
      <point x="561" y="0" type="line"/>
      <point x="828" y="629" type="line" smooth="yes"/>
      <point x="843" y="663"/>
      <point x="874" y="672"/>
      <point x="897" y="672" type="curve" smooth="yes"/>
      <point x="911" y="672" type="line"/>
      <point x="923" y="710" type="line"/>
      <point x="760" y="710" type="line"/>
      <point x="749" y="672" type="line"/>
      <point x="763" y="672" type="line" smooth="yes"/>
      <point x="789" y="672"/>
      <point x="799" y="665"/>
      <point x="797" y="654" type="curve"/>
      <point x="525" y="8" type="line"/>
      <point x="537" y="10" type="line"/>
      <point x="569" y="710" type="line"/>
      <point x="506" y="710" type="line"/>
      <point x="170" y="12" type="line"/>
      <point x="189" y="15" type="line"/>
      <point x="247" y="662" type="line"/>
      <point x="248" y="669"/>
      <point x="265" y="672"/>
      <point x="287" y="672" type="curve" smooth="yes"/>
      <point x="302" y="672" type="line"/>
      <point x="314" y="710" type="line"/>
    </contour>
    <contour>
      <point x="68" y="493" type="line"/>
      <point x="58" y="453" type="line"/>
      <point x="212" y="453" type="line"/>
      <point x="210" y="465" type="line"/>
      <point x="411" y="472" type="line"/>
      <point x="413" y="493" type="line"/>
    </contour>
    <contour>
      <point x="537" y="472" type="line"/>
      <point x="740" y="465" type="line"/>
      <point x="728" y="453" type="line"/>
      <point x="873" y="453" type="line"/>
      <point x="884" y="493" type="line"/>
      <point x="545" y="493" type="line"/>
    </contour>
    <contour>
      <point x="296" y="236" type="line"/>
      <point x="534" y="236" type="line"/>
      <point x="533" y="256" type="line"/>
      <point x="430" y="279" type="line"/>
      <point x="312" y="256" type="line"/>
    </contour>
    <contour>
      <point x="649" y="248" type="line"/>
      <point x="818" y="248" type="line"/>
      <point x="830" y="287" type="line"/>
      <point x="672" y="287" type="line"/>
    </contour>
    <contour>
      <point x="178" y="287" type="line"/>
      <point x="15" y="287" type="line"/>
      <point x="2" y="248" type="line"/>
      <point x="178" y="248" type="line"/>
    </contour>
  </outline>
</glyph>
<glyph name="yen.proportional" format="2">
  <advance width="671"/>
  <outline>
    <contour>
      <point x="56" y="211" type="line"/>
      <point x="46" y="176" type="line"/>
      <point x="536" y="176" type="line"/>
      <point x="546" y="211" type="line"/>
    </contour>
    <contour>
      <point x="98" y="364" type="line"/>
      <point x="88" y="329" type="line"/>
      <point x="578" y="329" type="line"/>
      <point x="588" y="364" type="line"/>
    </contour>
    <contour>
      <point x="349" y="325" type="line"/>
      <point x="618" y="627" type="line" smooth="yes"/>
      <point x="649" y="660"/>
      <point x="671" y="674"/>
      <point x="698" y="674" type="curve" smooth="yes"/>
      <point x="706" y="674" type="line"/>
      <point x="717" y="710" type="line"/>
      <point x="536" y="710" type="line"/>
      <point x="525" y="674" type="line"/>
      <point x="531" y="674" type="line" smooth="yes"/>
      <point x="563" y="674"/>
      <point x="593" y="664"/>
      <point x="589" y="651" type="curve"/>
      <point x="337" y="367" type="line"/>
      <point x="347" y="377" type="line"/>
      <point x="236" y="663" type="line"/>
      <point x="239" y="670"/>
      <point x="268" y="674"/>
      <point x="299" y="674" type="curve" smooth="yes"/>
      <point x="312" y="674" type="line"/>
      <point x="323" y="710" type="line"/>
      <point x="141" y="710" type="line"/>
      <point x="130" y="674" type="line"/>
      <point x="138" y="674" type="line" smooth="yes"/>
      <point x="167" y="674"/>
      <point x="181" y="669"/>
      <point x="192" y="640" type="curve" smooth="yes"/>
      <point x="313" y="326" type="line"/>
    </contour>
    <contour>
      <point x="367" y="375" type="line"/>
      <point x="320" y="375" type="line"/>
      <point x="241" y="72" type="line" smooth="yes"/>
      <point x="234" y="43"/>
      <point x="193" y="36"/>
      <point x="139" y="36" type="curve" smooth="yes"/>
      <point x="114" y="36" type="line"/>
      <point x="103" y="0" type="line"/>
      <point x="385" y="0" type="line"/>
      <point x="396" y="36" type="line"/>
      <point x="372" y="36" type="line" smooth="yes"/>
      <point x="318" y="36"/>
      <point x="281" y="43"/>
      <point x="288" y="72" type="curve" smooth="yes"/>
    </contour>
  </outline>
</glyph>
<glyph name="zero.linprop" format="2">
  <advance width="612"/>
  <outline>
    <contour>
      <point x="578" y="495" type="curve" smooth="yes"/>
      <point x="578" y="649"/>
      <point x="503" y="735"/>
      <point x="376" y="735" type="curve" smooth="yes"/>
      <point x="149" y="735"/>
      <point x="34" y="451"/>
      <point x="34" y="228" type="curve" smooth="yes"/>
      <point x="34" y="74"/>
      <point x="108" y="-11"/>
      <point x="236" y="-11" type="curve" smooth="yes"/>
      <point x="462" y="-11"/>
      <point x="578" y="272"/>
    </contour>
    <contour>
      <point x="245" y="28" type="curve" smooth="yes"/>
      <point x="132" y="28"/>
      <point x="87" y="108"/>
      <point x="87" y="223" type="curve" smooth="yes"/>
      <point x="87" y="273"/>
      <point x="92" y="324"/>
      <point x="108" y="389" type="curve" smooth="yes"/>
      <point x="156" y="588"/>
      <point x="246" y="697"/>
      <point x="367" y="697" type="curve" smooth="yes"/>
      <point x="480" y="697"/>
      <point x="525" y="616"/>
      <point x="525" y="501" type="curve" smooth="yes"/>
      <point x="525" y="451"/>
      <point x="520" y="400"/>
      <point x="503" y="335" type="curve" smooth="yes"/>
      <point x="456" y="136"/>
      <point x="366" y="28"/>
    </contour>
  </outline>
</glyph>
